<svg width="26" height="25" viewBox="0 0 26 25" fill="none" xmlns="http://www.w3.org/2000/svg">
<path d="M22.0491 14.5833C22.0491 14.0104 21.5904 13.5417 21.0297 13.5417H18.9911V15.625H21.0297C21.5904 15.625 22.0491 15.1562 22.0491 14.5833Z" fill="#A8A8A8"/>
<path d="M21.0297 17.7083H18.9911V19.7916H21.0297C21.5904 19.7916 22.0491 19.3229 22.0491 18.75C22.0491 18.1771 21.5904 17.7083 21.0297 17.7083Z" fill="#A8A8A8"/>
<path d="M12.875 14.5833H10.8363V18.75H12.875C12.875 19.8958 13.7924 20.8333 14.9137 20.8333H17.9717V12.5H14.9137C13.7924 12.5 12.875 13.4375 12.875 14.5833Z" fill="#A8A8A8"/>
<path d="M5.73956 13.5417C5.73956 12.3958 6.65698 11.4583 7.77825 11.4583H9.30727C11.2746 11.4583 12.875 9.82291 12.875 7.81249C12.875 5.80207 11.2746 4.16666 9.30727 4.16666H5.73956C5.17892 4.16666 4.72022 4.63541 4.72022 5.20832C4.72022 5.78124 5.17892 6.24999 5.73956 6.24999H9.30727C10.1533 6.24999 10.8363 6.94791 10.8363 7.81249C10.8363 8.67707 10.1533 9.37499 9.30727 9.37499H7.77825C5.5255 9.37499 3.70087 11.2396 3.70087 13.5417C3.70087 15.8437 5.5255 17.7083 7.77825 17.7083H9.81695V15.625H7.77825C6.65698 15.625 5.73956 14.6875 5.73956 13.5417Z" fill="#A8A8A8"/>
</svg>
