<svg width="26" height="25" viewBox="0 0 26 25" fill="none" xmlns="http://www.w3.org/2000/svg">
<path d="M9.10246 5.46875H4.51541C3.67445 5.46875 2.98639 4.76563 2.98639 3.90625V2.34375H10.6315V3.90625C10.6315 4.76563 9.94342 5.46875 9.10246 5.46875Z" stroke="#A8A8A8" stroke-width="2" stroke-miterlimit="10" stroke-linecap="round" stroke-linejoin="round"/>
<path d="M14.454 10.1562V14.8438C14.454 15.3125 14.1482 15.625 13.6895 15.625H12.1605C11.7018 15.625 11.396 15.3125 11.396 14.8438V10.1562C11.396 9.6875 11.7018 9.375 12.1605 9.375H13.6895C14.1482 9.375 14.454 9.6875 14.454 10.1562Z" stroke="#A8A8A8" stroke-width="2" stroke-miterlimit="10" stroke-linecap="round" stroke-linejoin="round"/>
<path d="M22.8636 22.6562H15.2185V21.0938C15.2185 20.2344 15.9066 19.5312 16.7475 19.5312H21.3346C22.1756 19.5312 22.8636 20.2344 22.8636 21.0938V22.6562Z" stroke="#A8A8A8" stroke-width="2" stroke-miterlimit="10" stroke-linecap="round" stroke-linejoin="round"/>
<path d="M11.396 10.1562H10.0199C9.56116 10.1562 9.10245 9.76563 9.10245 9.21875V5.46875H4.5154V10.1562C4.5154 12.7344 6.57957 14.8438 9.10245 14.8438H11.396" stroke="#A8A8A8" stroke-width="2" stroke-miterlimit="10" stroke-linecap="round" stroke-linejoin="round"/>
<path d="M14.454 14.8437H15.8301C16.2888 14.8437 16.7475 15.2344 16.7475 15.7812V19.5312H21.3346V14.8437C21.3346 12.2656 19.2704 10.1562 16.7475 10.1562H14.454" stroke="#A8A8A8" stroke-width="2" stroke-miterlimit="10" stroke-linecap="round" stroke-linejoin="round"/>
</svg>
