<svg width="26" height="25" viewBox="0 0 26 25" fill="none" xmlns="http://www.w3.org/2000/svg">
<path d="M21.1511 5.83325H17.0739V4.1665C17.0739 3.24625 16.3437 2.5 15.4429 2.5H10.55C9.64926 2.5 8.91901 3.24625 8.91901 4.16675V5.8335H4.84179C3.94468 5.83325 3.21075 6.58325 3.21075 7.5V20.8332C3.21075 21.7497 3.94468 22.5 4.84179 22.5H21.1514C22.048 22.5 22.7822 21.7497 22.7822 20.8332V7.5C22.7822 6.58325 22.048 5.83325 21.1511 5.83325ZM10.55 4.16675H15.4429V5.8335H10.55V4.16675ZM21.1511 7.5V9.16675H4.84179V7.5H21.1511ZM19.5204 20.8332V14.1667L18.7047 12.5L17.8893 14.1667V20.8332H15.0336V17.7507C15.9955 17.281 16.6644 16.2867 16.6644 15.1252C16.6644 13.964 15.9955 12.9695 15.0336 12.5V15.1252C15.0336 15.8155 14.4873 16.3752 13.8119 16.3752C13.1366 16.3752 12.5886 15.8155 12.5886 15.1252V12.5C11.6265 12.9695 10.9576 13.964 10.9576 15.1252C10.9576 16.2867 11.6265 17.281 12.5886 17.7507V20.8332H8.91754L8.91827 17.5L9.73367 15.8332L8.91754 12.5H7.28748L6.47282 15.8332L7.28748 17.5V20.8332H4.84179V10.8332H21.1514V20.8332H19.5204Z" fill="#A8A8A8"/>
</svg>
