<svg width="98" height="71" viewBox="0 0 98 71" fill="none" xmlns="http://www.w3.org/2000/svg">
<path d="M22.0781 24.3164C21.9316 24.528 21.7607 24.6663 21.5654 24.7314C21.3701 24.7965 21.1748 24.8047 20.9795 24.7559C20.8005 24.6908 20.6377 24.585 20.4912 24.4385C20.3447 24.2757 20.2633 24.0723 20.2471 23.8281C20.2145 23.6003 20.1982 23.4538 20.1982 23.3887C20.1657 23.2585 20.1413 23.1283 20.125 22.998C20.1087 22.8678 20.0843 22.7376 20.0518 22.6074C19.9867 22.2819 19.9215 21.9564 19.8564 21.6309C19.8076 21.3053 19.7425 20.9798 19.6611 20.6543C19.4821 19.8242 19.2949 19.0104 19.0996 18.2129C18.9043 17.3991 18.7171 16.5853 18.5381 15.7715C18.359 15.0391 18.18 14.3066 18.001 13.5742C17.8219 12.8255 17.6429 12.085 17.4639 11.3525C17.3988 11.1084 17.3418 10.8643 17.293 10.6201C17.2441 10.376 17.1872 10.1318 17.1221 9.8877C17.0895 9.75749 17.057 9.61914 17.0244 9.47266C16.9919 9.3099 16.9837 9.16341 17 9.0332C17.0326 8.75651 17.1302 8.52865 17.293 8.34961C17.472 8.1543 17.6999 8.05664 17.9766 8.05664C18.2207 8.05664 18.4486 8.1543 18.6602 8.34961C18.888 8.52865 18.9857 8.75651 18.9531 9.0332C18.9694 9.13086 18.9775 9.21224 18.9775 9.27734C18.9938 9.34245 19.0182 9.41569 19.0508 9.49707C19.0996 9.75749 19.1484 10.0098 19.1973 10.2539C19.2624 10.498 19.3193 10.7422 19.3682 10.9863C19.5472 11.7513 19.7262 12.5081 19.9053 13.2568C20.1006 13.9893 20.2878 14.7298 20.4668 15.4785C20.6458 16.2923 20.8249 17.098 21.0039 17.8955C21.1992 18.693 21.3864 19.4987 21.5654 20.3125C21.598 20.4753 21.6305 20.6299 21.6631 20.7764C21.6956 20.9229 21.7282 21.0693 21.7607 21.2158C22.2979 20.3857 22.8105 19.5475 23.2988 18.7012C23.8034 17.8385 24.2754 16.9596 24.7148 16.0645C25.252 14.974 25.7321 13.8428 26.1553 12.6709C26.5785 11.499 26.8307 10.3027 26.9121 9.08203C26.9284 8.82161 27.026 8.61003 27.2051 8.44727C27.3841 8.28451 27.5794 8.18685 27.791 8.1543C28.0026 8.12174 28.2061 8.16243 28.4014 8.27637C28.613 8.37402 28.7513 8.5612 28.8164 8.83789C29.0931 9.87956 29.3372 10.9375 29.5488 12.0117C29.7767 13.0859 30.0046 14.152 30.2324 15.21C30.4766 16.2679 30.7451 17.3177 31.0381 18.3594C31.3473 19.401 31.7298 20.4183 32.1855 21.4111C32.6576 20.7926 33.0726 20.1497 33.4307 19.4824C33.7887 18.7988 34.0817 18.0745 34.3096 17.3096C34.7002 16.04 34.9606 14.7542 35.0908 13.4521C35.2373 12.1338 35.3757 10.8154 35.5059 9.49707C35.5384 9.23665 35.6361 9.00879 35.7988 8.81348C35.9779 8.61816 36.2057 8.52051 36.4824 8.52051C36.7266 8.52051 36.9544 8.61816 37.166 8.81348C37.3939 8.99251 37.4915 9.22038 37.459 9.49707C37.3125 10.9456 37.166 12.3861 37.0195 13.8184C36.873 15.2344 36.5801 16.6341 36.1406 18.0176C35.7663 19.1406 35.2861 20.1742 34.7002 21.1182C34.1305 22.0622 33.4551 22.9736 32.6738 23.8525C32.4622 24.0804 32.1855 24.1781 31.8438 24.1455C31.5182 24.0967 31.2822 23.9339 31.1357 23.6572C30.6963 22.876 30.3138 22.0703 29.9883 21.2402C29.6628 20.4102 29.3779 19.5719 29.1338 18.7256C28.8896 17.8792 28.6699 17.0247 28.4746 16.1621C28.2793 15.2832 28.0921 14.4124 27.9131 13.5498C27.4899 14.6729 27.0098 15.7796 26.4727 16.8701C25.8379 18.1722 25.1462 19.4417 24.3975 20.6787C23.6488 21.8994 22.8757 23.112 22.0781 24.3164Z" fill="#7065E4"/>
</svg>
