<svg width="26" height="25" viewBox="0 0 26 25" fill="none" xmlns="http://www.w3.org/2000/svg">
<path d="M17.0096 11.4583H15.9902V3.12499C15.9902 1.97916 15.0728 1.04166 13.9515 1.04166H11.9128C10.7916 1.04166 9.87416 1.97916 9.87416 3.12499V11.4583H8.85481C6.04142 11.4583 3.75809 13.7917 3.75809 16.6667V23.9583H22.1063V16.6667C22.1063 13.7917 19.823 11.4583 17.0096 11.4583ZM11.9128 3.12499H13.9515V11.4583H11.9128V3.12499ZM20.0676 21.875H18.0289V18.75C18.0289 18.1771 17.5702 17.7083 17.0096 17.7083C16.4489 17.7083 15.9902 18.1771 15.9902 18.75V21.875H13.9515V18.75C13.9515 18.1771 13.4928 17.7083 12.9322 17.7083C12.3716 17.7083 11.9128 18.1771 11.9128 18.75V21.875H9.87416V18.75C9.87416 18.1771 9.41545 17.7083 8.85481 17.7083C8.29417 17.7083 7.83547 18.1771 7.83547 18.75V21.875H5.79678V16.6667C5.79678 14.9479 7.17289 13.5417 8.85481 13.5417H17.0096C18.6915 13.5417 20.0676 14.9479 20.0676 16.6667V21.875Z" fill="#A8A8A8"/>
</svg>
