<svg width="262" height="101" viewBox="0 0 262 101" fill="none" xmlns="http://www.w3.org/2000/svg">
<rect y="36" width="262" height="65" fill="#C4C4C4" fill-opacity="0.05"/>
<path d="M46.879 86L41.368 67.949H41.236L35.758 86H32.392L26.188 63.296H29.092L34.174 82.106H34.339L39.883 63.296H42.853L48.463 82.106H48.661L53.578 63.296H56.416L50.245 86H46.879ZM69.138 86.264C66.124 86.264 63.99 85.967 62.736 85.373C61.482 84.779 60.679 83.745 60.327 82.271C59.997 80.775 59.832 78.234 59.832 74.648C59.832 71.062 59.997 68.532 60.327 67.058C60.679 65.562 61.482 64.517 62.736 63.923C63.99 63.329 66.124 63.032 69.138 63.032C72.13 63.032 74.253 63.329 75.507 63.923C76.783 64.517 77.586 65.562 77.916 67.058C78.268 68.532 78.444 71.062 78.444 74.648C78.444 78.234 78.268 80.775 77.916 82.271C77.586 83.745 76.783 84.779 75.507 85.373C74.253 85.967 72.13 86.264 69.138 86.264ZM69.138 83.624C71.382 83.624 72.9 83.481 73.692 83.195C74.484 82.909 75.001 82.194 75.243 81.05C75.485 79.906 75.606 77.772 75.606 74.648C75.606 71.524 75.485 69.39 75.243 68.246C75.001 67.102 74.484 66.387 73.692 66.101C72.9 65.815 71.382 65.672 69.138 65.672C66.894 65.672 65.365 65.815 64.551 66.101C63.759 66.387 63.242 67.102 63 68.246C62.758 69.39 62.637 71.524 62.637 74.648C62.637 77.772 62.758 79.906 63 81.05C63.242 82.194 63.759 82.909 64.551 83.195C65.365 83.481 66.894 83.624 69.138 83.624ZM98.3355 86L94.8045 77.09H94.2435H87.1155V86H84.2775V63.296H94.7055C96.5095 63.296 97.8735 63.582 98.7975 64.154C99.7215 64.726 100.327 65.496 100.613 66.464C100.899 67.432 101.042 68.675 101.042 70.193C101.042 71.755 100.811 73.119 100.349 74.285C99.8865 75.429 98.9405 76.21 97.5105 76.628L101.372 86H98.3355ZM93.5175 74.45C94.9255 74.45 95.9595 74.307 96.6195 74.021C97.3015 73.713 97.7305 73.273 97.9065 72.701C98.1045 72.129 98.2035 71.293 98.2035 70.193C98.2035 69.071 98.1155 68.224 97.9395 67.652C97.7635 67.08 97.3565 66.651 96.7185 66.365C96.1025 66.079 95.1125 65.936 93.7485 65.936H87.1155V74.45H93.5175ZM121.424 86L113.702 75.77H109.61V86H106.772V63.296H109.61V73.13H113.702L121.457 63.296H124.625L115.979 74.285L124.724 86H121.424ZM136.468 86.264C135.258 86.264 133.905 86.22 132.409 86.132C130.935 86.044 129.626 85.934 128.482 85.802V83.195C131.342 83.481 133.729 83.624 135.643 83.624C136.831 83.624 137.766 83.58 138.448 83.492C139.152 83.382 139.746 83.195 140.23 82.931C140.67 82.667 140.956 82.282 141.088 81.776C141.22 81.248 141.286 80.555 141.286 79.697C141.286 78.663 141.231 77.937 141.121 77.519C141.011 77.079 140.747 76.76 140.329 76.562C139.933 76.364 139.24 76.221 138.25 76.133L132.64 75.506C131.276 75.352 130.242 75.033 129.538 74.549C128.856 74.043 128.394 73.394 128.152 72.602C127.932 71.788 127.822 70.732 127.822 69.434C127.822 67.63 128.13 66.266 128.746 65.342C129.384 64.418 130.264 63.802 131.386 63.494C132.53 63.186 134.059 63.032 135.973 63.032C137.249 63.032 138.547 63.087 139.867 63.197C141.187 63.307 142.232 63.439 143.002 63.593V66.101C142.166 65.969 141.132 65.87 139.9 65.804C138.668 65.716 137.524 65.672 136.468 65.672C135.236 65.672 134.246 65.727 133.498 65.837C132.75 65.947 132.167 66.134 131.749 66.398C131.287 66.662 130.99 67.014 130.858 67.454C130.726 67.894 130.66 68.521 130.66 69.335C130.66 70.237 130.726 70.897 130.858 71.315C130.99 71.711 131.243 72.008 131.617 72.206C131.991 72.382 132.607 72.514 133.465 72.602L139.009 73.229C140.329 73.361 141.352 73.592 142.078 73.922C142.804 74.252 143.332 74.846 143.662 75.704C143.97 76.496 144.124 77.761 144.124 79.499C144.124 81.501 143.816 82.997 143.2 83.987C142.584 84.955 141.759 85.582 140.725 85.868C139.691 86.132 138.272 86.264 136.468 86.264ZM149.665 63.296H159.631C161.457 63.296 162.843 63.593 163.789 64.187C164.735 64.781 165.362 65.584 165.67 66.596C165.978 67.608 166.132 68.917 166.132 70.523C166.132 72.063 165.978 73.35 165.67 74.384C165.362 75.396 164.724 76.21 163.756 76.826C162.81 77.442 161.413 77.75 159.565 77.75H152.503V86H149.665V63.296ZM158.608 75.11C160.038 75.11 161.083 74.967 161.743 74.681C162.403 74.373 162.832 73.911 163.03 73.295C163.228 72.679 163.327 71.755 163.327 70.523C163.327 69.291 163.228 68.367 163.03 67.751C162.854 67.135 162.436 66.684 161.776 66.398C161.138 66.09 160.104 65.936 158.674 65.936H152.503V75.11H158.608ZM185.218 86L182.875 79.961H172.645L170.302 86H167.431L176.011 63.296H179.575L188.155 86H185.218ZM177.826 66.365H177.661L173.503 77.288H181.984L177.826 66.365ZM206.159 85.835C205.477 85.967 204.619 86.066 203.585 86.132C202.573 86.22 201.627 86.264 200.747 86.264C198.019 86.264 196.028 85.967 194.774 85.373C193.52 84.779 192.673 83.701 192.233 82.139C191.815 80.555 191.606 78.058 191.606 74.648C191.606 71.26 191.815 68.774 192.233 67.19C192.673 65.606 193.52 64.517 194.774 63.923C196.028 63.329 198.019 63.032 200.747 63.032C201.649 63.032 202.595 63.076 203.585 63.164C204.575 63.252 205.389 63.373 206.027 63.527V66.002C204.377 65.782 202.859 65.672 201.473 65.672C199.163 65.672 197.546 65.848 196.622 66.2C195.72 66.552 195.126 67.311 194.84 68.477C194.554 69.643 194.411 71.7 194.411 74.648C194.411 77.596 194.554 79.653 194.84 80.819C195.126 81.985 195.72 82.744 196.622 83.096C197.546 83.448 199.163 83.624 201.473 83.624C203.167 83.624 204.729 83.514 206.159 83.294V85.835ZM211.347 86V63.296H226.131V65.936H214.185V73.229H224.547V75.869H214.185V83.36H226.131V86H211.347Z" fill="#7065E4"/>
<path d="M118.156 49.6328C117.863 50.056 117.521 50.3327 117.131 50.4629C116.74 50.5931 116.35 50.6094 115.959 50.5117C115.601 50.3815 115.275 50.1699 114.982 49.877C114.689 49.5514 114.527 49.1445 114.494 48.6562C114.429 48.2005 114.396 47.9076 114.396 47.7773C114.331 47.5169 114.283 47.2565 114.25 46.9961C114.217 46.7357 114.169 46.4753 114.104 46.2148C113.973 45.5638 113.843 44.9128 113.713 44.2617C113.615 43.6107 113.485 42.9596 113.322 42.3086C112.964 40.6484 112.59 39.0208 112.199 37.4258C111.809 35.7982 111.434 34.1706 111.076 32.543C110.718 31.0781 110.36 29.6133 110.002 28.1484C109.644 26.651 109.286 25.1699 108.928 23.7051C108.798 23.2168 108.684 22.7285 108.586 22.2402C108.488 21.752 108.374 21.2637 108.244 20.7754C108.179 20.515 108.114 20.2383 108.049 19.9453C107.984 19.6198 107.967 19.3268 108 19.0664C108.065 18.513 108.26 18.0573 108.586 17.6992C108.944 17.3086 109.4 17.1133 109.953 17.1133C110.441 17.1133 110.897 17.3086 111.32 17.6992C111.776 18.0573 111.971 18.513 111.906 19.0664C111.939 19.2617 111.955 19.4245 111.955 19.5547C111.988 19.6849 112.036 19.8314 112.102 19.9941C112.199 20.515 112.297 21.0195 112.395 21.5078C112.525 21.9961 112.639 22.4844 112.736 22.9727C113.094 24.5026 113.452 26.0163 113.811 27.5137C114.201 28.9785 114.576 30.4596 114.934 31.957C115.292 33.5846 115.65 35.196 116.008 36.791C116.398 38.3861 116.773 39.9974 117.131 41.625C117.196 41.9505 117.261 42.2598 117.326 42.5527C117.391 42.8457 117.456 43.1387 117.521 43.4316C118.596 41.7715 119.621 40.0951 120.598 38.4023C121.607 36.6771 122.551 34.9193 123.43 33.1289C124.504 30.9479 125.464 28.6855 126.311 26.3418C127.157 23.998 127.661 21.6055 127.824 19.1641C127.857 18.6432 128.052 18.2201 128.41 17.8945C128.768 17.569 129.159 17.3737 129.582 17.3086C130.005 17.2435 130.412 17.3249 130.803 17.5527C131.226 17.748 131.503 18.1224 131.633 18.6758C132.186 20.7591 132.674 22.875 133.098 25.0234C133.553 27.1719 134.009 29.304 134.465 31.4199C134.953 33.5358 135.49 35.6354 136.076 37.7188C136.695 39.8021 137.46 41.8366 138.371 43.8223C139.315 42.5853 140.145 41.2995 140.861 39.9648C141.577 38.5977 142.163 37.1491 142.619 35.6191C143.4 33.0801 143.921 30.5085 144.182 27.9043C144.475 25.2676 144.751 22.6309 145.012 19.9941C145.077 19.4733 145.272 19.0176 145.598 18.627C145.956 18.2363 146.411 18.041 146.965 18.041C147.453 18.041 147.909 18.2363 148.332 18.627C148.788 18.985 148.983 19.4408 148.918 19.9941C148.625 22.8913 148.332 25.7721 148.039 28.6367C147.746 31.4688 147.16 34.2682 146.281 37.0352C145.533 39.2812 144.572 41.3483 143.4 43.2363C142.261 45.1243 140.91 46.9473 139.348 48.7051C138.924 49.1608 138.371 49.3561 137.688 49.291C137.036 49.1934 136.564 48.8678 136.271 48.3145C135.393 46.752 134.628 45.1406 133.977 43.4805C133.326 41.8203 132.756 40.1439 132.268 38.4512C131.779 36.7585 131.34 35.0495 130.949 33.3242C130.559 31.5664 130.184 29.8249 129.826 28.0996C128.98 30.3457 128.02 32.5592 126.945 34.7402C125.676 37.3444 124.292 39.8835 122.795 42.3574C121.298 44.7988 119.751 47.224 118.156 49.6328Z" fill="#7065E4"/>
</svg>
