<svg width="200" height="142" viewBox="0 0 200 142" fill="none" xmlns="http://www.w3.org/2000/svg">
<g clip-path="url(#clip0)">
<path d="M100.642 142C154.873 142 198.837 138.2 198.837 133.512C198.837 128.824 154.873 125.024 100.642 125.024C46.4102 125.024 2.44678 128.824 2.44678 133.512C2.44678 138.2 46.4102 142 100.642 142Z" fill="#F2F2F2"/>
<path d="M96.8781 40.5925C80.8794 40.5925 69.3926 53.9944 69.3926 85.2654C69.3926 120.706 80.8794 130.087 96.8781 130.087C112.877 130.087 125.048 119.812 125.048 85.2654C125.048 48.3358 112.877 40.5925 96.8781 40.5925ZM96.9832 118.323C85.9022 118.323 80.1131 109.835 80.1131 85.2883C80.1131 63.6292 86.1392 52.2074 97.2202 52.2074C108.301 52.2074 114.327 59.71 114.327 85.2883C114.327 109.216 108.064 118.323 96.9832 118.323Z" fill="#2F2E41"/>
<path d="M59.8129 105.368H53.1981V79.9351C53.1981 78.5843 52.7871 77.2887 52.0556 76.3335C51.324 75.3783 50.3318 74.8417 49.2972 74.8417H47.7472C47.2349 74.8417 46.7276 74.9735 46.2544 75.2294C45.7811 75.4854 45.351 75.8606 44.9888 76.3335C44.6266 76.8065 44.3392 77.368 44.1432 77.986C43.9471 78.6039 43.8462 79.2663 43.8462 79.9351V105.368H25.1882C24.8044 105.368 24.4271 105.239 24.0929 104.992C23.7587 104.746 23.4789 104.391 23.2808 103.961C23.0827 103.532 22.9729 103.043 22.9621 102.542C22.9513 102.041 23.0399 101.545 23.2192 101.102L42.9666 52.3015C43.2128 51.6931 43.362 51.0259 43.4053 50.3401C43.4485 49.6543 43.3849 48.9641 43.2182 48.3113C43.0515 47.6585 42.7853 47.0566 42.4355 46.5419C42.0858 46.0271 41.6597 45.6103 41.1832 45.3164L40.0174 44.5977C39.1123 44.0396 38.0774 43.9571 37.127 44.3675C36.1766 44.7778 35.3834 45.6495 34.9114 46.8022L10.8268 105.629C10.4167 106.631 10.2021 107.749 10.2021 108.885C10.2021 109.792 10.339 110.69 10.6048 111.528C10.8706 112.366 11.2603 113.128 11.7515 113.769C12.2426 114.41 12.8258 114.919 13.4675 115.266C14.1093 115.613 14.7972 115.792 15.4918 115.792H43.8462V131.874C43.8462 132.676 43.9672 133.47 44.2022 134.211C44.4371 134.951 44.7816 135.624 45.2158 136.191C45.65 136.758 46.1654 137.208 46.7328 137.515C47.3001 137.821 47.9081 137.979 48.5222 137.979H48.5222C49.1362 137.979 49.7443 137.821 50.3116 137.515C50.8789 137.208 51.3944 136.758 51.8286 136.191C52.2628 135.624 52.6072 134.951 52.8422 134.211C53.0772 133.47 53.1981 132.676 53.1981 131.874V115.792H59.8129C60.8716 115.792 61.8868 115.243 62.6354 114.265C63.384 113.288 63.8046 111.962 63.8046 110.58C63.8046 109.198 63.384 107.872 62.6354 106.895C61.8869 105.917 60.8716 105.368 59.8129 105.368Z" fill="#6C63FF"/>
<path d="M182.3 105.368H175.685V79.9351C175.685 78.5843 175.274 77.2887 174.543 76.3335C173.811 75.3783 172.819 74.8417 171.784 74.8417H170.234C169.722 74.8417 169.215 74.9735 168.742 75.2294C168.268 75.4854 167.838 75.8606 167.476 76.3335C167.114 76.8065 166.827 77.368 166.63 77.986C166.434 78.6039 166.334 79.2663 166.334 79.9351V105.368H147.676C147.292 105.368 146.914 105.239 146.58 104.992C146.246 104.746 145.966 104.391 145.768 103.961C145.57 103.532 145.46 103.043 145.449 102.542C145.439 102.041 145.527 101.545 145.706 101.102L165.454 52.3015C165.7 51.6931 165.849 51.0259 165.893 50.3401C165.936 49.6543 165.872 48.9641 165.706 48.3113C165.539 47.6585 165.273 47.0566 164.923 46.5419C164.573 46.0271 164.147 45.6103 163.67 45.3164L162.505 44.5977C161.6 44.0396 160.565 43.9571 159.614 44.3675C158.664 44.7778 157.871 45.6495 157.399 46.8022L133.314 105.629C132.904 106.631 132.689 107.749 132.689 108.885C132.689 110.717 133.247 112.474 134.239 113.769C135.231 115.064 136.576 115.792 137.979 115.792H166.334V131.874C166.334 133.493 166.826 135.046 167.703 136.191C168.58 137.336 169.769 137.979 171.009 137.979C172.25 137.979 173.439 137.336 174.316 136.191C175.193 135.046 175.685 133.493 175.685 131.874V115.792H182.3C183.359 115.792 184.374 115.243 185.123 114.265C185.871 113.288 186.292 111.962 186.292 110.58C186.292 109.198 185.871 107.872 185.123 106.895C184.374 105.917 183.359 105.368 182.3 105.368Z" fill="#6C63FF"/>
<path d="M61.6376 102.39H55.0228V76.9569C55.0228 76.2881 54.9219 75.6257 54.7259 75.0078C54.5299 74.3898 54.2425 73.8283 53.8803 73.3554C53.518 72.8824 53.088 72.5072 52.6147 72.2512C52.1414 71.9953 51.6342 71.8635 51.1219 71.8635H49.5719C48.5373 71.8635 47.5451 72.4002 46.8135 73.3554C46.0819 74.3106 45.6709 75.6061 45.6709 76.9569V102.39H27.0129C26.6291 102.39 26.2518 102.26 25.9176 102.014C25.5834 101.767 25.3036 101.412 25.1055 100.983C24.9074 100.554 24.7976 100.065 24.7868 99.5641C24.776 99.0631 24.8646 98.567 25.0439 98.1239L44.7913 49.3234C45.0375 48.7149 45.1867 48.0477 45.23 47.3619C45.2732 46.6761 45.2096 45.986 45.0429 45.3331C44.8762 44.6803 44.61 44.0784 44.2602 43.5637C43.9105 43.0489 43.4845 42.6321 43.0079 42.3382L41.8422 41.6195C40.937 41.0614 39.9021 40.9789 38.9517 41.3893C38.0013 41.7996 37.2081 42.6713 36.7361 43.824L12.6516 102.651C12.2414 103.653 12.0269 104.771 12.0269 105.907V105.907C12.0269 107.739 12.5842 109.496 13.5762 110.791C14.5682 112.086 15.9136 112.814 17.3165 112.814H45.6709V128.896C45.6709 129.698 45.7919 130.492 46.0269 131.232C46.2619 131.973 46.6063 132.646 47.0405 133.213C47.4747 133.78 47.9902 134.23 48.5575 134.537C49.1248 134.843 49.7328 135.001 50.3469 135.001H50.3469C51.587 135.001 52.7764 134.358 53.6533 133.213C54.5302 132.068 55.0228 130.515 55.0228 128.896V112.814H61.6376C62.1618 112.814 62.6809 112.679 63.1652 112.417C63.6494 112.155 64.0895 111.771 64.4601 111.287C64.8308 110.803 65.1248 110.229 65.3254 109.596C65.526 108.964 65.6293 108.286 65.6293 107.602V107.602C65.6293 106.917 65.526 106.24 65.3254 105.607C65.1248 104.975 64.8308 104.401 64.4601 103.917C64.0895 103.433 63.6495 103.049 63.1652 102.787C62.6809 102.525 62.1618 102.39 61.6376 102.39V102.39Z" stroke="#3F3D56" stroke-miterlimit="10"/>
<path d="M185.721 102.39H179.106V76.9569C179.106 75.6061 178.695 74.3106 177.964 73.3554C177.232 72.4002 176.24 71.8635 175.205 71.8635H173.655C173.143 71.8635 172.636 71.9953 172.163 72.2512C171.689 72.5072 171.259 72.8824 170.897 73.3554C170.535 73.8283 170.247 74.3898 170.051 75.0078C169.855 75.6257 169.754 76.2881 169.754 76.9569V102.39H151.096C150.713 102.39 150.335 102.26 150.001 102.014C149.667 101.767 149.387 101.412 149.189 100.983C148.991 100.554 148.881 100.065 148.87 99.5641C148.86 99.0631 148.948 98.567 149.127 98.1239L168.875 49.3234C169.121 48.7149 169.27 48.0477 169.313 47.3619C169.357 46.6761 169.293 45.986 169.126 45.3331C168.96 44.6803 168.693 44.0784 168.344 43.5637C167.994 43.0489 167.568 42.6321 167.091 42.3382L165.926 41.6195C165.02 41.0614 163.986 40.9789 163.035 41.3893C162.085 41.7996 161.292 42.6713 160.82 43.824L136.735 102.651C136.325 103.653 136.11 104.771 136.11 105.907C136.11 107.739 136.668 109.496 137.66 110.791C138.652 112.086 139.997 112.814 141.4 112.814H169.754V128.896C169.754 130.515 170.247 132.068 171.124 133.213C172.001 134.358 173.19 135.001 174.43 135.001V135.001C175.67 135.001 176.86 134.358 177.737 133.213C178.614 132.068 179.106 130.515 179.106 128.896V112.814H185.721C186.245 112.814 186.764 112.679 187.249 112.417C187.733 112.155 188.173 111.771 188.544 111.287C188.914 110.803 189.208 110.229 189.409 109.596C189.609 108.964 189.713 108.286 189.713 107.602V107.602C189.713 106.22 189.292 104.894 188.544 103.917C187.795 102.939 186.78 102.39 185.721 102.39V102.39Z" stroke="#3F3D56" stroke-miterlimit="10"/>
<path d="M100.527 37.9121C84.5288 37.9121 73.042 51.314 73.042 82.585C73.042 118.026 84.5288 127.407 100.527 127.407C116.526 127.407 128.697 117.132 128.697 82.585C128.697 45.6554 116.526 37.9121 100.527 37.9121ZM100.633 115.643C89.5516 115.643 83.7625 107.155 83.7625 82.6079C83.7625 60.9489 89.7886 49.5271 100.87 49.5271C111.951 49.5271 117.977 57.0296 117.977 82.6079C117.977 106.536 111.714 115.643 100.633 115.643V115.643Z" stroke="#3F3D56" stroke-miterlimit="10"/>
<path d="M87.7038 7.57154C89.0302 7.57154 90.1054 6.16764 90.1054 4.43585C90.1054 2.70405 89.0302 1.30016 87.7038 1.30016C86.3775 1.30016 85.3022 2.70405 85.3022 4.43585C85.3022 6.16764 86.3775 7.57154 87.7038 7.57154Z" fill="#2F2E41"/>
<path d="M93.5613 22.7911C97.2816 22.7911 100.297 17.6891 100.297 11.3956C100.297 5.10196 97.2816 0 93.5613 0C89.8411 0 86.8252 5.10196 86.8252 11.3956C86.8252 17.6891 89.8411 22.7911 93.5613 22.7911Z" fill="#2F2E41"/>
<path opacity="0.1" d="M93.5613 19.3495C90.1868 19.3495 87.392 15.1518 86.9016 9.67476C86.8506 10.2459 86.8251 10.8205 86.8252 11.3956C86.8252 17.6892 89.8411 22.7911 93.5613 22.7911C97.2816 22.7911 100.297 17.6892 100.297 11.3956C100.298 10.8205 100.272 10.2459 100.221 9.67476C99.7306 15.1518 96.9358 19.3495 93.5613 19.3495Z" fill="black"/>
<path d="M107.269 44.7679C107.124 45.5441 106.5 46.1657 105.81 46.6C104.357 47.5131 102.566 47.7856 100.828 47.8771C100.385 47.9123 99.9402 47.9015 99.4982 47.845C98.6417 47.7368 97.8383 47.2546 97.2177 46.4763C97.1734 46.4386 97.1372 46.3868 97.1123 46.3259C97.0875 46.2649 97.0749 46.1968 97.0757 46.1277C97.0765 46.0587 97.0907 45.9911 97.117 45.9311C97.1432 45.8712 97.1807 45.8209 97.2259 45.785C98.1509 44.4582 99.6947 43.6447 101.25 43.0589C102.429 42.6148 104.485 41.4643 105.771 41.6195C107.017 41.7699 107.451 43.7879 107.269 44.7679Z" fill="#3F3D56"/>
<path opacity="0.1" d="M107.269 44.7679C107.124 45.5441 106.5 46.1657 105.81 46.6C104.357 47.5131 102.566 47.7856 100.828 47.8771C100.385 47.9123 99.9402 47.9015 99.4982 47.845C98.6417 47.7368 97.8383 47.2546 97.2177 46.4763C97.1734 46.4386 97.1372 46.3868 97.1123 46.3259C97.0875 46.2649 97.0749 46.1968 97.0757 46.1277C97.0765 46.0587 97.0907 45.9911 97.117 45.9311C97.1432 45.8712 97.1807 45.8209 97.2259 45.785C98.1509 44.4582 99.6947 43.6447 101.25 43.0589C102.429 42.6148 104.485 41.4643 105.771 41.6195C107.017 41.7699 107.451 43.7879 107.269 44.7679Z" fill="black"/>
<path d="M88.8025 38.9668C88.3591 40.1013 88.2789 41.4192 88.5793 42.6308C88.8849 43.8333 89.4569 44.8904 90.2229 45.6682C92.102 47.6349 94.6883 47.9056 97.0965 47.8783C99.2071 47.8543 101.315 47.6657 103.408 47.3135C104.11 47.2323 104.799 47.0233 105.456 46.6926C106.242 46.2486 106.933 45.4342 107.212 44.3773C107.492 43.3205 107.294 42.0264 106.629 41.3211C106.045 40.7014 105.24 40.6161 104.489 40.5572L100.191 40.22C100.616 39.6589 101.181 39.3416 101.698 38.9337C102.384 38.3925 102.84 37.484 103.339 36.6649C104.107 35.4655 104.943 34.343 105.84 33.3066C105.98 34.3542 106.488 35.2145 107.085 35.9374C107.682 36.6603 108.371 37.2422 108.992 37.9305C110.496 39.5974 111.579 41.8599 113.16 43.3993C114.248 43.026 115.265 42.363 116.148 41.4519L115.533 39.9981C115.482 39.8485 115.402 39.7185 115.301 39.6207C115.127 39.4809 114.903 39.5529 114.701 39.5134C114.161 39.4076 113.925 38.5937 113.713 37.9366C113.132 36.1327 112.018 34.7331 111.067 33.2204C110.365 32.1037 109.742 30.906 109.206 29.6419C108.886 28.8881 108.594 28.1032 108.16 27.4537C107.727 26.8042 107.119 26.2936 106.459 26.2918C105.876 26.2901 105.338 26.6766 104.837 27.0654C103.31 28.2496 101.841 29.5564 100.438 30.9783C99.7041 31.7225 98.9745 32.5087 98.1133 32.965C97.7508 33.1571 97.3686 33.2884 97.0207 33.5222C96.4114 33.9316 95.949 34.6243 95.4512 35.2392C93.6758 37.4323 91.245 38.8532 88.8025 38.9668Z" fill="#3F3D56"/>
<path d="M97.7891 23.3571C97.7692 24.0274 97.66 24.6882 97.4664 25.3096C97.3683 25.6196 97.2223 25.8998 97.0376 26.1328C96.8529 26.3659 96.6333 26.5467 96.3927 26.6641C96.051 26.7836 95.6929 26.7988 95.346 26.7084C95.0435 26.6672 94.752 26.5375 94.4931 26.3291C94.0901 25.9673 93.8892 25.3218 93.816 24.6901C93.7428 24.0591 93.7756 23.4144 93.7287 22.7789C93.6831 22.2655 93.6083 21.7573 93.505 21.2584C93.4734 21.0925 93.4411 20.9273 93.4095 20.7621C93.3785 20.5969 93.348 20.4317 93.3199 20.2665C93.2941 20.1112 93.2701 19.9552 93.2496 19.7984C93.2326 19.6661 93.2174 19.5331 93.2062 19.3992C93.196 19.0024 93.1454 18.6092 93.0557 18.2298C92.9715 17.9838 92.8662 17.7511 92.7417 17.5362C92.6884 17.4367 92.6369 17.3373 92.5894 17.2341C92.4522 16.9657 92.3884 16.6448 92.4085 16.3232C92.4141 16.2735 92.4233 16.2246 92.436 16.1771C92.4407 16.1587 92.4459 16.1404 92.4518 16.1228C92.5045 16.1041 92.5529 16.0689 92.5928 16.0203C92.6327 15.9716 92.6629 15.911 92.6808 15.8436C92.701 15.699 92.6915 15.5499 92.6533 15.4115C92.6095 15.2182 92.5496 15.0317 92.4747 14.8555C92.4255 14.7393 92.2585 14.5297 92.2573 14.3966C92.255 14.1289 92.6556 13.9133 92.8179 13.8077C93.3132 13.4839 93.8654 13.3377 94.4182 13.384C94.7725 13.4154 95.1568 13.5576 95.3524 13.9454C95.5282 14.2949 95.5047 14.7477 95.5797 15.1538C95.5876 15.2128 95.6067 15.2683 95.6354 15.3152C95.6736 15.3606 95.7217 15.3895 95.773 15.3977C95.8598 15.4203 95.9487 15.4249 96.0366 15.4115H96.0372C96.0604 15.4091 96.0835 15.4048 96.1063 15.3985C96.2431 15.3656 96.3725 15.2926 96.4847 15.1851C96.5573 15.1599 96.6305 15.1392 96.7043 15.1232C96.7073 15.1228 96.7103 15.122 96.7131 15.1209C97.0066 16.33 97.0447 17.6264 97.2848 18.8577C97.4037 19.4703 97.5742 20.0753 97.5982 20.7055C97.6 20.733 97.6005 20.7613 97.6011 20.7896C97.6046 20.9923 97.5924 21.1965 97.5988 21.3984C97.601 21.4893 97.6089 21.5798 97.6222 21.6691C97.6485 21.8127 97.6812 21.9542 97.72 22.0928L97.7218 22.0997C97.7329 22.1441 97.7435 22.1892 97.7523 22.2343C97.7587 22.2672 97.7646 22.2993 97.7693 22.3322L97.7698 22.3345C97.8132 22.6725 97.8197 23.0167 97.7891 23.3571Z" fill="#FBBEBE"/>
<path d="M93.6786 15.449C95.5872 15.449 97.1345 13.4288 97.1345 10.9367C97.1345 8.44457 95.5872 6.42433 93.6786 6.42433C91.7699 6.42433 90.2227 8.44457 90.2227 10.9367C90.2227 13.4288 91.7699 15.449 93.6786 15.449Z" fill="#FBBEBE"/>
<path d="M115.619 35.522C115.519 34.2909 115.184 33.1123 114.645 32.0942C114.734 32.7901 114.824 33.4858 114.914 34.1813C114.802 34.2236 114.683 34.2223 114.572 34.1776C114.461 34.1329 114.362 34.0467 114.287 33.9297C114.142 33.6924 114.03 33.4227 113.959 33.1335C113.566 31.8609 113.053 30.6576 112.43 29.552C110.23 29.3126 108.055 28.1218 106.121 26.7337C104.185 25.3463 102.374 23.6829 100.465 22.2366C100.134 21.9753 99.7888 21.7453 99.4326 21.5483C98.8352 21.2355 98.1645 21.0733 97.5981 20.7055C97.56 20.681 97.5219 20.655 97.4844 20.6282C97.3565 20.5374 97.2353 20.4311 97.1224 20.3108C97.0615 20.2462 97.0036 20.1767 96.9491 20.1028C96.6664 19.6735 96.4424 19.1841 96.2866 18.6558C95.9826 17.7778 95.8742 16.7186 95.5708 15.8406C95.7103 15.6704 95.8669 15.526 96.0365 15.4115H96.0371C96.0617 15.3947 96.0863 15.3786 96.1114 15.3633C96.2315 15.2895 96.3564 15.2299 96.4846 15.1851C96.5572 15.1599 96.6304 15.1392 96.7042 15.1232C96.7072 15.1228 96.7101 15.122 96.713 15.1209C97.0553 15.0481 97.4059 15.0843 97.7351 15.2264C98.2166 15.439 98.6225 15.8635 99.0273 16.265C99.6849 16.8699 100.316 17.5231 100.916 18.2214C101.25 18.639 101.555 19.0979 101.914 19.4772C102.212 19.7779 102.527 20.0501 102.855 20.2917C104.798 21.803 106.741 23.314 108.685 24.8247C109.342 25.3363 110.001 25.848 110.644 26.3895C111.621 27.2124 112.563 28.1042 113.504 28.9952C114.059 29.5198 114.613 30.0447 115.168 30.5699C115.35 30.7214 115.509 30.9141 115.639 31.1389C115.754 31.3942 115.825 31.6788 115.848 31.9733C115.987 33.1632 115.909 34.3793 115.619 35.522Z" fill="#FBBEBE"/>
<path d="M98.646 26.7505C98.4128 28.1157 97.3562 28.9409 96.8038 30.1401C96.1173 31.6284 96.3973 33.3584 96.655 35.0631C96.1841 35.5931 95.7129 36.1231 95.2416 36.6532C94.9815 36.9445 94.7214 37.2375 94.4415 37.4952C94.0332 37.8524 93.6065 38.1723 93.1645 38.4527C92.7475 38.7327 92.3304 39.0128 91.9134 39.2932C91.5257 39.5779 91.1149 39.8052 90.6886 39.9709C89.8667 40.2462 88.994 40.0535 88.181 39.7345C88.0851 39.7017 87.9929 39.6526 87.9068 39.5885C87.8561 39.549 87.8119 39.4967 87.7768 39.4347C87.6966 39.2471 87.6675 39.0296 87.6942 38.8175C87.7768 37.031 88.1113 35.2819 88.4446 33.5458C88.6227 32.5042 88.8622 31.4822 89.1609 30.4888C89.4539 29.6377 89.7907 28.8134 90.169 28.0216C90.5865 27.0254 91.0811 26.0877 91.6451 25.2232C91.9197 24.8905 92.1507 24.5014 92.3292 24.0714C92.5372 23.4519 92.4569 22.7414 92.4991 22.0668C92.5314 21.56 92.6344 21.0652 92.8031 20.6068V20.6061C92.8934 20.3592 93.002 20.1245 93.1276 19.9055C93.1844 20.0784 93.2413 20.2509 93.2981 20.4233C93.3356 20.5365 93.3727 20.6494 93.4094 20.7621C93.4574 20.9074 93.505 21.0522 93.5523 21.1965C93.6888 21.611 93.8251 22.0253 93.9611 22.4393C94.1082 22.9608 94.3178 23.4484 94.582 23.884C94.7028 24.1071 94.8659 24.2854 95.0552 24.4017C95.2446 24.5179 95.4537 24.568 95.6624 24.5471C95.871 24.5262 96.0719 24.435 96.2455 24.2825C96.419 24.13 96.5593 23.9213 96.6527 23.6768C96.8496 23.2204 96.9922 22.7276 97.0756 22.2152C97.1913 21.5914 97.2072 20.9431 97.1224 20.3109C96.9813 19.0933 96.5847 17.8497 96.2965 16.7186C96.1792 16.3414 96.1113 15.9412 96.0956 15.5347C96.0962 15.489 96.0997 15.4435 96.1062 15.3985C96.1079 15.3871 96.1097 15.3748 96.1114 15.3634C96.2315 15.2895 96.3564 15.2299 96.4845 15.1852C96.5572 15.1599 96.6304 15.1393 96.7042 15.1232C96.9578 16.9159 97.2119 18.7086 97.4663 20.5013C97.4721 20.5434 97.4786 20.5854 97.4844 20.6283C97.5207 20.8852 97.5577 21.1422 97.5987 21.3984C97.6356 21.6309 97.6754 21.8626 97.7199 22.0929L97.7217 22.0997C97.7369 22.1778 97.7527 22.255 97.7691 22.3322L97.7697 22.3345C97.8148 22.5456 97.8652 22.7552 97.922 22.9617C98.2664 24.206 98.8668 25.4587 98.646 26.7505Z" fill="#6C63FF"/>
<path d="M112.672 45.9355C112.661 46.1985 112.7 46.4609 112.785 46.6995C113.002 47.2156 113.521 47.3329 113.97 47.3812C116.593 47.6628 119.232 47.5578 121.837 47.0682C121.979 47.0556 122.116 47 122.238 46.9059C122.608 46.5669 122.38 45.7405 121.976 45.4759C121.571 45.2114 121.091 45.2751 120.647 45.1606C120.206 45.0157 119.787 44.7779 119.404 44.4566C118.504 43.7815 117.617 43.0776 116.744 42.345C116.223 41.9088 115.609 41.4432 115.024 41.7019C113.437 42.4028 112.661 43.7003 112.672 45.9355Z" fill="#3F3D56"/>
<path d="M93.3333 20.1709V20.1717C93.3292 20.2038 93.3251 20.2351 93.3199 20.2665C93.3134 20.3185 93.3058 20.3713 93.2982 20.4233C93.2256 20.9089 93.1365 21.3923 93.034 21.8726C92.7529 23.1995 92.3762 24.505 92.0025 25.7914C90.9997 29.2407 89.9967 32.6902 88.9935 36.1399C88.7405 37.0088 88.488 37.8783 88.2004 38.7296C88.1044 39.0133 88.0054 39.2993 87.9069 39.5884C87.5543 40.6232 87.2158 41.6916 87.1033 42.793C86.9984 43.5178 86.9864 44.2603 87.0676 44.9902C87.18 45.7122 87.5157 46.4174 88.0411 46.6843C88.2976 46.8151 88.6649 46.9902 88.5946 47.3382C88.5565 47.5294 88.3902 47.6227 88.2408 47.6548C88.0436 47.6958 87.8418 47.6797 87.6499 47.6075C87.458 47.5354 87.2806 47.409 87.1302 47.2372C86.8497 46.9122 86.6341 46.4067 86.261 46.3524C86.0027 46.3157 85.7649 46.5176 85.5282 46.659C84.5629 47.2349 83.4383 46.8319 82.4243 46.4227C82.504 45.8866 82.9164 45.5333 83.3258 45.4262C83.7352 45.3183 84.1587 45.3948 84.5764 45.3803C84.7101 45.3896 84.8428 45.345 84.9565 45.2526C85.0584 45.1304 85.1299 44.9711 85.1615 44.7952C85.4305 43.7544 85.6306 42.6854 85.7596 41.5999C85.8943 40.4657 85.9505 39.3139 86.1427 38.1934C86.292 37.3193 86.5228 36.4726 86.7208 35.6145C87.1036 33.8477 87.418 32.0568 87.6627 30.2487C87.7864 29.4975 87.875 28.7371 87.928 27.9719C87.9614 27.3371 87.9456 26.6992 87.9924 26.0667C88.0711 25.2439 88.2026 24.4311 88.3855 23.637C88.5647 22.7704 88.7438 21.9044 88.9226 21.0389C89.188 19.7579 89.4726 18.4271 90.1451 17.4314C90.3786 17.0808 90.6648 16.7966 90.986 16.5964C91.3071 16.3961 91.6563 16.2842 92.0119 16.2673C92.1452 16.2671 92.2782 16.2858 92.4084 16.3232C92.4301 16.33 92.4518 16.3369 92.4734 16.3446C92.6154 16.393 92.7516 16.4666 92.8782 16.5633C93.0856 16.3912 93.191 16.4516 93.3286 16.717C93.4493 16.9979 93.5062 17.3178 93.4927 17.6394C93.5043 18.488 93.4509 19.3361 93.3333 20.1709Z" fill="#FBBEBE"/>
<path d="M93.5615 21.185L93.5527 21.1965L93.5053 21.2585L93.0343 21.8726L92.8036 20.6068L92.0122 16.2673C92.1456 16.2671 92.2785 16.2858 92.4088 16.3232C92.4144 16.2735 92.4236 16.2245 92.4363 16.1771L92.4738 16.3446L92.742 17.5361L93.2499 19.7984L93.3337 20.1709V20.1717L93.5615 21.185Z" fill="#6C63FF"/>
<path d="M96.5497 7.34093C96.5493 7.74274 96.4883 8.14052 96.3701 8.51152C96.2519 8.88252 96.0789 9.21946 95.8609 9.5031C95.7819 9.60633 95.6973 9.70189 95.6077 9.78901C95.2035 10.1869 94.7111 10.4022 94.2049 10.4025H91.3948C90.7738 10.4013 90.1786 10.0783 89.7399 9.50457C89.3011 8.93083 89.0547 8.15319 89.0547 7.34242C89.0547 6.53165 89.3011 5.75401 89.7399 5.18027C90.1786 4.60652 90.7738 4.28357 91.3948 4.28232H94.2049C94.8259 4.28443 95.421 4.60726 95.8603 5.18032C96.2997 5.75338 96.5475 6.53011 96.5497 7.34093Z" fill="#2F2E41"/>
<path d="M99.1843 7.57154C100.511 7.57154 101.586 6.16764 101.586 4.43585C101.586 2.70405 100.511 1.30016 99.1843 1.30016C97.8579 1.30016 96.7827 2.70405 96.7827 4.43585C96.7827 6.16764 97.8579 7.57154 99.1843 7.57154Z" fill="#2F2E41"/>
<path opacity="0.1" d="M99.1259 1.30016C99.0965 1.30016 99.0673 1.30168 99.0381 1.30306C99.6593 1.33255 100.248 1.67552 100.679 2.25981C101.111 2.84409 101.352 3.62415 101.352 4.43585C101.352 5.24754 101.111 6.0276 100.679 6.61189C100.248 7.19618 99.6593 7.53915 99.0381 7.56863C99.0673 7.57001 99.0965 7.57154 99.1259 7.57154C99.7629 7.57154 100.374 7.24117 100.824 6.65311C101.275 6.06506 101.528 5.26748 101.528 4.43585C101.528 3.60421 101.275 2.80663 100.824 2.21858C100.374 1.63052 99.7629 1.30016 99.1259 1.30016Z" fill="black"/>
<path opacity="0.1" d="M87.7037 1.30016C87.7331 1.30016 87.7623 1.30168 87.7915 1.30306C87.1703 1.33255 86.582 1.67552 86.1505 2.25981C85.7189 2.84409 85.4778 3.62415 85.4778 4.43585C85.4778 5.24754 85.7189 6.0276 86.1505 6.61189C86.582 7.19618 87.1703 7.53915 87.7915 7.56863C87.7623 7.57001 87.7331 7.57154 87.7037 7.57154C87.0671 7.5708 86.4568 7.24011 86.0069 6.65214C85.5569 6.06416 85.3042 5.26701 85.3042 4.43585C85.3042 3.60469 85.5569 2.80753 86.0069 2.21955C86.4568 1.63158 87.0671 1.30089 87.7037 1.30016Z" fill="black"/>
<path opacity="0.1" d="M95.6079 9.78902C95.2037 10.1869 94.7113 10.4022 94.2051 10.4025H91.395C90.8888 10.4022 90.3964 10.1869 89.9922 9.78902H95.6079Z" fill="black"/>
<path d="M113.755 32.51C113.755 32.51 114.36 34.7878 114.914 34.1813L114.473 31.2039L113.755 32.51Z" fill="#FBBEBE"/>
<path d="M187.429 101.973C187.993 102.241 188.597 102.334 189.193 102.245C189.789 102.156 190.361 101.888 190.865 101.461C191.368 101.034 191.788 100.46 192.092 99.7847C192.396 99.1095 192.576 98.3512 192.618 97.5697C192.66 96.7881 192.562 96.0047 192.332 95.2811C192.102 94.5574 191.746 93.9134 191.293 93.3997C190.84 92.8861 190.302 92.5168 189.721 92.3211C189.14 92.1254 188.532 92.1085 187.945 92.2719L188.042 94.8755L187.099 92.6442C186.173 93.2122 185.458 94.237 185.11 95.4934C184.987 95.9335 184.912 96.3942 184.887 96.8618C184.828 97.9588 185.044 99.0513 185.502 99.9737C185.961 100.896 186.638 101.598 187.429 101.973Z" fill="#57B894"/>
<path d="M192.098 132.171C191.764 129.957 193.208 127.994 194.633 126.718C196.059 125.442 197.724 124.188 198.211 122.023C198.91 118.911 196.827 116.061 195.207 113.603C194.005 111.779 192.972 109.776 192.131 107.634C191.794 106.776 191.484 105.878 191.395 104.92C191.267 103.541 191.607 102.168 191.949 100.852C193.088 96.4691 194.306 92.1225 195.603 87.8126" stroke="#3F3D56" stroke-miterlimit="10"/>
<path d="M187.589 101.303C188.153 101.571 188.757 101.664 189.353 101.575C189.949 101.486 190.521 101.217 191.024 100.79C191.527 100.363 191.947 99.7896 192.252 99.1144C192.556 98.4392 192.736 97.6809 192.778 96.8994C192.819 96.1178 192.721 95.3343 192.491 94.6107C192.261 93.8871 191.906 93.243 191.453 92.7294C191 92.2157 190.462 91.8465 189.881 91.6508C189.3 91.4551 188.692 91.4382 188.105 91.6015L188.202 94.2052L187.258 91.9738C186.332 92.5419 185.617 93.5667 185.27 94.8231C185.146 95.2632 185.071 95.7239 185.047 96.1914C184.987 97.2885 185.203 98.381 185.662 99.3034C186.121 100.226 186.797 100.928 187.589 101.303V101.303Z" stroke="#3F3D56" stroke-miterlimit="10"/>
<path d="M191.624 86.9134C191.846 86.1161 192.217 85.4044 192.704 84.8438C193.192 84.2833 193.779 83.8918 194.413 83.7057L194.732 86.1809L195.323 83.5812C196.144 83.5971 196.941 83.9534 197.597 84.5985C198.252 85.2436 198.734 86.1442 198.973 87.1702C199.211 88.1963 199.194 89.2948 198.923 90.307C198.652 91.3193 198.142 92.193 197.466 92.8019C196.79 93.4108 195.983 93.7235 195.162 93.6948C194.341 93.6661 193.549 93.2975 192.899 92.6423C192.249 91.987 191.775 91.0789 191.546 90.0492C191.317 89.0195 191.344 87.9214 191.624 86.9134H191.624Z" fill="#57B894"/>
<path d="M191.837 86.0197C192.058 85.2224 192.43 84.5107 192.917 83.9501C193.404 83.3895 193.992 82.9981 194.625 82.8119L194.944 85.2871L195.536 82.6875C196.357 82.7034 197.153 83.0596 197.809 83.7047C198.465 84.3498 198.947 85.2504 199.185 86.2765C199.424 87.3026 199.406 88.401 199.135 89.4133C198.864 90.4255 198.354 91.2992 197.678 91.9081C197.002 92.5171 196.196 92.8298 195.375 92.8011C194.554 92.7724 193.761 92.4038 193.111 91.7485C192.461 91.0932 191.987 90.1852 191.758 89.1555C191.529 88.1257 191.557 87.0276 191.837 86.0197H191.837Z" stroke="#3F3D56" stroke-miterlimit="10"/>
<path d="M194.527 113.653C195.421 114.077 196.404 114.056 197.287 113.595C198.17 113.133 198.892 112.264 199.316 111.152C199.74 110.039 199.835 108.763 199.584 107.564C199.334 106.366 198.754 105.331 197.956 104.655L197.501 106.653L197.179 104.148C197.176 104.146 197.172 104.145 197.169 104.143C196.691 103.916 196.183 103.815 195.674 103.844C195.166 103.873 194.667 104.033 194.206 104.315C193.745 104.596 193.331 104.993 192.987 105.483C192.644 105.974 192.377 106.548 192.204 107.172C192.03 107.797 191.953 108.46 191.976 109.124C191.998 109.788 192.121 110.439 192.337 111.041C192.553 111.643 192.857 112.184 193.233 112.632C193.609 113.08 194.048 113.427 194.527 113.653H194.527Z" fill="#57B894"/>
<path d="M194.711 112.748C195.606 113.172 196.588 113.151 197.471 112.689C198.355 112.228 199.077 111.358 199.501 110.246C199.924 109.134 200.02 107.857 199.769 106.659C199.518 105.461 198.938 104.425 198.14 103.75L197.686 105.747L197.363 103.243C197.36 103.241 197.357 103.239 197.354 103.238C196.875 103.011 196.367 102.909 195.859 102.939C195.35 102.968 194.851 103.128 194.39 103.409C193.929 103.691 193.515 104.088 193.172 104.578C192.828 105.068 192.562 105.642 192.388 106.267C192.215 106.892 192.137 107.555 192.16 108.219C192.183 108.883 192.306 109.534 192.521 110.136C192.737 110.738 193.042 111.278 193.417 111.727C193.793 112.175 194.233 112.522 194.711 112.748H194.711Z" stroke="#3F3D56" stroke-miterlimit="10"/>
<path d="M190.494 122.054C190.647 123.196 191.097 124.235 191.768 124.996C192.439 125.756 193.289 126.193 194.177 126.232C195.065 126.271 195.936 125.91 196.644 125.21C197.353 124.51 197.855 123.513 198.067 122.387C198.28 121.261 198.189 120.073 197.81 119.024C197.432 117.975 196.788 117.127 195.988 116.624C195.188 116.121 194.279 115.992 193.415 116.259C192.55 116.527 191.782 117.174 191.24 118.093L192.966 121.485L190.608 119.685C190.425 120.451 190.386 121.264 190.494 122.054Z" fill="#57B894"/>
<path d="M190.653 121.384C190.807 122.526 191.257 123.565 191.928 124.325C192.598 125.086 193.449 125.522 194.337 125.562C195.225 125.601 196.096 125.24 196.804 124.54C197.512 123.84 198.015 122.843 198.227 121.717C198.439 120.59 198.348 119.403 197.97 118.354C197.591 117.304 196.948 116.457 196.147 115.954C195.347 115.45 194.439 115.321 193.574 115.589C192.71 115.856 191.942 116.504 191.4 117.422L193.126 120.815L190.767 119.014C190.585 119.781 190.545 120.593 190.653 121.384V121.384Z" stroke="#3F3D56" stroke-miterlimit="10"/>
<path d="M1.67759 114.296C2.04809 114.472 2.44481 114.533 2.83648 114.475C3.22815 114.416 3.60406 114.24 3.93459 113.959C4.26512 113.679 4.54123 113.302 4.74115 112.858C4.94108 112.414 5.05936 111.916 5.08667 111.403C5.11397 110.889 5.04956 110.375 4.89852 109.899C4.74747 109.424 4.51391 109 4.21624 108.663C3.91858 108.326 3.56495 108.083 3.18323 107.954C2.80151 107.826 2.40213 107.815 2.01658 107.922L2.08029 109.633L1.46043 108.167C0.852071 108.54 0.382089 109.213 0.153763 110.039C0.0726747 110.328 0.0233791 110.63 0.00734679 110.938C-0.0317791 111.658 0.110107 112.376 0.411505 112.982C0.712902 113.588 1.15738 114.05 1.67759 114.296Z" fill="#57B894"/>
<path d="M4.74369 134.137C4.52488 132.682 5.47303 131.392 6.40959 130.554C7.34615 129.715 8.44047 128.892 8.76002 127.469C9.21928 125.424 7.85129 123.552 6.78655 121.937C5.99661 120.739 5.31824 119.422 4.76563 118.015C4.52538 117.463 4.36174 116.859 4.28225 116.232C4.1983 115.326 4.42131 114.424 4.64598 113.56C5.39442 110.68 6.19464 107.824 7.04663 104.992" stroke="#3F3D56" stroke-miterlimit="10"/>
<path d="M1.7816 113.856C2.1521 114.032 2.54881 114.093 2.94048 114.034C3.33215 113.976 3.70806 113.799 4.03859 113.519C4.36912 113.238 4.64523 112.861 4.84515 112.418C5.04508 111.974 5.16336 111.476 5.19066 110.962C5.21797 110.449 5.15356 109.934 5.00252 109.459C4.85147 108.983 4.61791 108.56 4.32024 108.223C4.02258 107.885 3.66896 107.643 3.28724 107.514C2.90552 107.385 2.50614 107.374 2.12058 107.482L2.1843 109.192L1.56443 107.726C0.956075 108.099 0.486092 108.773 0.257767 109.598C0.17668 109.887 0.127385 110.19 0.111351 110.497C0.072223 111.218 0.214109 111.936 0.515507 112.542C0.816904 113.148 1.26139 113.609 1.7816 113.856V113.856Z" stroke="#3F3D56" stroke-miterlimit="10"/>
<path d="M4.43291 104.401C4.57831 103.878 4.82234 103.41 5.14252 103.042C5.4627 102.673 5.84873 102.416 6.26503 102.294L6.47461 103.92L6.86318 102.212C7.40268 102.223 7.92568 102.457 8.35667 102.88C8.78766 103.304 9.10434 103.896 9.26098 104.57C9.41763 105.244 9.40613 105.966 9.22816 106.631C9.05018 107.296 8.71493 107.87 8.27082 108.27C7.8267 108.67 7.2967 108.876 6.75733 108.857C6.21797 108.838 5.69714 108.596 5.27005 108.165C4.84297 107.735 4.53172 107.138 4.38125 106.462C4.23078 105.785 4.24887 105.064 4.43291 104.401Z" fill="#57B894"/>
<path d="M4.57256 103.814C4.71796 103.29 4.96199 102.823 5.28217 102.454C5.60235 102.086 5.98838 101.829 6.40468 101.707L6.61426 103.333L7.00283 101.625C7.54233 101.635 8.06533 101.869 8.49632 102.293C8.92731 102.717 9.24399 103.309 9.40063 103.983C9.55728 104.657 9.54578 105.379 9.3678 106.044C9.18983 106.709 8.85458 107.283 8.41046 107.683C7.96635 108.083 7.43635 108.289 6.89698 108.27C6.35761 108.251 5.83679 108.009 5.4097 107.578C4.98262 107.148 4.67137 106.551 4.5209 105.874C4.37043 105.198 4.38852 104.476 4.57256 103.814V103.814Z" stroke="#3F3D56" stroke-miterlimit="10"/>
<path d="M6.33982 121.97C6.92739 122.248 7.57284 122.235 8.15315 121.931C8.73346 121.628 9.20805 121.057 9.48646 120.326C9.76487 119.596 9.82762 118.757 9.66277 117.97C9.49791 117.182 9.11697 116.502 8.59256 116.058L8.29399 117.37L8.08227 115.725C8.08018 115.724 8.07802 115.723 8.07579 115.722C7.76151 115.573 7.42778 115.506 7.09369 115.525C6.75959 115.544 6.43168 115.649 6.12869 115.834C5.82569 116.019 5.55356 116.28 5.32785 116.602C5.10213 116.924 4.92726 117.301 4.81322 117.712C4.69917 118.122 4.6482 118.558 4.66321 118.994C4.67822 119.43 4.75892 119.858 4.90069 120.254C5.04246 120.649 5.24253 121.004 5.48947 121.299C5.7364 121.593 6.02536 121.821 6.33982 121.97Z" fill="#57B894"/>
<path d="M6.46101 121.375C7.04858 121.654 7.69404 121.64 8.27435 121.337C8.85466 121.033 9.32925 120.462 9.60766 119.731C9.88606 119.001 9.94882 118.162 9.78396 117.375C9.61911 116.588 9.23817 115.907 8.71376 115.463L8.41518 116.776L8.20347 115.13C8.20138 115.129 8.19921 115.128 8.19699 115.127C7.88277 114.978 7.54918 114.912 7.21526 114.931C6.88134 114.951 6.55363 115.056 6.25084 115.241C5.63934 115.614 5.16647 116.289 4.93626 117.118C4.70606 117.946 4.73737 118.86 5.02332 119.659C5.30927 120.457 5.82642 121.075 6.46101 121.375V121.375Z" stroke="#3F3D56" stroke-miterlimit="10"/>
<path d="M3.68998 127.489C3.79101 128.24 4.08663 128.922 4.52726 129.422C4.96789 129.922 5.52673 130.209 6.11007 130.234C6.6934 130.26 7.26575 130.023 7.73114 129.563C8.19652 129.103 8.52662 128.448 8.66609 127.708C8.80556 126.968 8.74592 126.188 8.49716 125.499C8.2484 124.809 7.82565 124.252 7.29981 123.922C6.77398 123.591 6.17703 123.506 5.60909 123.682C5.04115 123.858 4.53676 124.283 4.18049 124.887L5.31459 127.116L3.76499 125.933C3.64484 126.436 3.61911 126.97 3.68998 127.489Z" fill="#57B894"/>
<path d="M3.79496 127.049C3.89599 127.8 4.19161 128.482 4.63224 128.982C5.07286 129.481 5.63171 129.768 6.21505 129.794C6.79838 129.82 7.37073 129.582 7.83611 129.123C8.30149 128.663 8.6316 128.008 8.77107 127.268C8.91054 126.528 8.8509 125.748 8.60213 125.058C8.35337 124.369 7.93063 123.812 7.40479 123.481C6.87896 123.151 6.28201 123.066 5.71407 123.242C5.14613 123.417 4.64173 123.843 4.28547 124.446L5.41957 126.675L3.86997 125.492C3.74982 125.996 3.7241 126.53 3.79496 127.049V127.049Z" stroke="#3F3D56" stroke-miterlimit="10"/>
<path d="M89.5288 82.9097C91.2766 82.9097 92.6934 80.5157 92.6934 77.5625C92.6934 74.6093 91.2766 72.2153 89.5288 72.2153C87.7811 72.2153 86.3643 74.6093 86.3643 77.5625C86.3643 80.5157 87.7811 82.9097 89.5288 82.9097Z" fill="#2F2E41"/>
<path d="M106.748 83.0312C108.496 83.0312 109.913 80.6372 109.913 77.684C109.913 74.7308 108.496 72.3368 106.748 72.3368C105 72.3368 103.583 74.7308 103.583 77.684C103.583 80.6372 105 83.0312 106.748 83.0312Z" fill="#2F2E41"/>
<path d="M104.328 93.4826C104.328 95.8985 101.744 97.8575 98.5573 97.8575C95.3704 97.8575 92.7866 95.8985 92.7866 93.4826C92.7866 91.3899 94.7245 89.6399 97.3138 89.2121C97.7261 89.1411 98.1415 89.1062 98.5573 89.1076C99.2541 89.1046 99.9489 89.2025 100.629 89.3992C102.792 90.0288 104.328 91.6208 104.328 93.4826Z" fill="#2F2E41"/>
<path d="M90.2735 81.6944C92.0212 81.6944 93.438 79.3004 93.438 76.3472C93.438 73.394 92.0212 71 90.2735 71C88.5257 71 87.1089 73.394 87.1089 76.3472C87.1089 79.3004 88.5257 81.6944 90.2735 81.6944Z" stroke="#3F3D56" stroke-miterlimit="10"/>
<path d="M107.493 81.8159C109.24 81.8159 110.657 79.4219 110.657 76.4687C110.657 73.5155 109.24 71.1215 107.493 71.1215C105.745 71.1215 104.328 73.5155 104.328 76.4687C104.328 79.4219 105.745 81.8159 107.493 81.8159Z" stroke="#3F3D56" stroke-miterlimit="10"/>
<path d="M99.302 96.6423C102.489 96.6423 105.073 94.6835 105.073 92.2673C105.073 89.851 102.489 87.8923 99.302 87.8923C96.1149 87.8923 93.5312 89.851 93.5312 92.2673C93.5312 94.6835 96.1149 96.6423 99.302 96.6423Z" stroke="#3F3D56" stroke-miterlimit="10"/>
<path d="M100.698 89.7638C100.699 90.0695 100.611 90.3643 100.452 90.5883C100.377 90.6955 100.285 90.7813 100.184 90.8402C100.082 90.8991 99.9716 90.9298 99.8602 90.9305H97.9987C97.7693 90.9201 97.5524 90.7915 97.3955 90.5729C97.2385 90.3542 97.1542 90.0634 97.161 89.7638C97.1601 89.5269 97.2132 89.2949 97.3137 89.0975C97.7256 89.0218 98.1412 88.9846 98.5572 88.9861C99.2547 88.9831 99.9502 89.0875 100.629 89.2972C100.675 89.4454 100.698 89.6039 100.698 89.7638Z" fill="white"/>
<path d="M90.2735 76.1041C90.7876 76.1041 91.2043 75.5601 91.2043 74.8889C91.2043 74.2177 90.7876 73.6736 90.2735 73.6736C89.7595 73.6736 89.3428 74.2177 89.3428 74.8889C89.3428 75.5601 89.7595 76.1041 90.2735 76.1041Z" fill="white"/>
<path d="M107.586 76.1041C108.1 76.1041 108.516 75.5601 108.516 74.8889C108.516 74.2177 108.1 73.6736 107.586 73.6736C107.071 73.6736 106.655 74.2177 106.655 74.8889C106.655 75.5601 107.071 76.1041 107.586 76.1041Z" fill="white"/>
<path opacity="0.3" d="M108.516 87.5277C109.03 87.5277 109.447 86.9836 109.447 86.3124C109.447 85.6413 109.03 85.0972 108.516 85.0972C108.002 85.0972 107.585 85.6413 107.585 86.3124C107.585 86.9836 108.002 87.5277 108.516 87.5277Z" fill="#6C63FF"/>
<path opacity="0.3" d="M85.8058 87.5277C86.3198 87.5277 86.7365 86.9836 86.7365 86.3124C86.7365 85.6413 86.3198 85.0972 85.8058 85.0972C85.2917 85.0972 84.875 85.6413 84.875 86.3124C84.875 86.9836 85.2917 87.5277 85.8058 87.5277Z" fill="#6C63FF"/>
</g>
<defs>
<clipPath id="clip0">
<rect width="200" height="142" fill="white"/>
</clipPath>
</defs>
</svg>
