<svg width="26" height="25" viewBox="0 0 26 25" fill="none" xmlns="http://www.w3.org/2000/svg">
<path d="M19.1268 4.16668V3.12501C19.1268 2.55209 18.6681 2.08334 18.1074 2.08334H5.87529C5.31465 2.08334 4.85594 2.55209 4.85594 3.12501V7.29168C4.85594 7.86459 5.31465 8.33334 5.87529 8.33334H18.1074C18.6681 8.33334 19.1268 7.86459 19.1268 7.29168V6.25001H20.1461V10.4167H9.95267V21.875C9.95267 22.4479 10.4114 22.9167 10.972 22.9167H13.0107C13.5713 22.9167 14.03 22.4479 14.03 21.875V12.5H22.1848V4.16668H19.1268ZM17.0881 6.25001H6.89463V4.16668H17.0881V6.25001Z" fill="#A8A8A8"/>
</svg>
