<svg width="48" height="48" viewBox="0 0 48 48" fill="none" xmlns="http://www.w3.org/2000/svg">
<path d="M16.5 10.5H7.5C5.85 10.5 4.5 9.15 4.5 7.5V4.5H19.5V7.5C19.5 9.15 18.15 10.5 16.5 10.5Z" stroke="#5E1DEC" stroke-width="2" stroke-miterlimit="10" stroke-linecap="round" stroke-linejoin="round"/>
<path d="M27 19.5V28.5C27 29.4 26.4 30 25.5 30H22.5C21.6 30 21 29.4 21 28.5V19.5C21 18.6 21.6 18 22.5 18H25.5C26.4 18 27 18.6 27 19.5Z" stroke="#5E1DEC" stroke-width="2" stroke-miterlimit="10" stroke-linecap="round" stroke-linejoin="round"/>
<path d="M43.5 43.5H28.5V40.5C28.5 38.85 29.85 37.5 31.5 37.5H40.5C42.15 37.5 43.5 38.85 43.5 40.5V43.5Z" stroke="#5E1DEC" stroke-width="2" stroke-miterlimit="10" stroke-linecap="round" stroke-linejoin="round"/>
<path d="M21 19.5H18.3C17.4 19.5 16.5 18.75 16.5 17.7V10.5H7.5V19.5C7.5 24.45 11.55 28.5 16.5 28.5H21" stroke="#5E1DEC" stroke-width="2" stroke-miterlimit="10" stroke-linecap="round" stroke-linejoin="round"/>
<path d="M27 28.5H29.7C30.6 28.5 31.5 29.25 31.5 30.3V37.5H40.5V28.5C40.5 23.55 36.45 19.5 31.5 19.5H27" stroke="#5E1DEC" stroke-width="2" stroke-miterlimit="10" stroke-linecap="round" stroke-linejoin="round"/>
</svg>
