<svg width="48" height="48" viewBox="0 0 48 48" fill="none" xmlns="http://www.w3.org/2000/svg">
<path d="M39.9998 11.1998H32.0001V7.99967C32.0001 6.23279 30.5673 4.79999 28.8 4.79999H19.2C17.4326 4.79999 15.9998 6.23279 15.9998 8.00015V11.2003H8.00015C6.23999 11.1998 4.79999 12.6398 4.79999 14.4V39.9998C4.79999 41.7595 6.23999 43.2 8.00015 43.2H40.0003C41.7595 43.2 43.2 41.7595 43.2 39.9998V14.4C43.2 12.6398 41.7595 11.1998 39.9998 11.1998ZM19.2 8.00015H28.8V11.2003H19.2V8.00015ZM39.9998 14.4V17.6001H8.00015V14.4H39.9998ZM36.8001 39.9998V27.2001L35.1998 24L33.6 27.2001V39.9998H27.9969V34.0814C29.8843 33.1795 31.1966 31.2705 31.1966 29.0405C31.1966 26.8109 29.8843 24.9014 27.9969 24V29.0405C27.9969 30.3657 26.9251 31.4405 25.5998 31.4405C24.275 31.4405 23.1998 30.3657 23.1998 29.0405V24C21.312 24.9014 19.9997 26.8109 19.9997 29.0405C19.9997 31.2705 21.312 33.1795 23.1998 34.0814V39.9998H15.9969L15.9984 33.6L17.5982 30.3998L15.9969 24H12.7987L11.2003 30.3998L12.7987 33.6V39.9998H8.00015V20.7998H40.0003V39.9998H36.8001Z" fill="#34A853"/>
</svg>
