<svg width="145" height="148" viewBox="0 0 145 148" fill="none" xmlns="http://www.w3.org/2000/svg">
<path d="M72.387 144.772C112.365 144.772 144.773 112.364 144.773 72.386C144.773 32.4083 112.365 0 72.387 0C32.4093 0 0.000976562 32.4083 0.000976562 72.386C0.000976562 112.364 32.4093 144.772 72.387 144.772Z" fill="#2E5871"/>
<path d="M106.667 119.509C102.001 110.676 72.001 105.133 72.001 105.133C72.001 105.133 42.001 110.676 37.335 119.509C33.886 131.767 31.001 147.342 31.001 147.342H72.001H113.001C113.001 147.342 111.052 130.642 106.667 119.509Z" fill="#F1C9A5"/>
<path d="M72.001 105.133C72.001 105.133 102.001 110.676 106.667 119.509C111.053 130.642 113.001 147.342 113.001 147.342H72.001V105.133Z" fill="#E4B692"/>
<path d="M80.168 87.175H63.834V114.511H80.168V87.175Z" fill="#F1C9A5"/>
<path d="M80.168 87.175H72.001V114.511H80.168V87.175Z" fill="#E4B692"/>
<path opacity="0.1" d="M63.834 99.842C65.303 104.059 71.231 106.476 75.585 106.476C77.16 106.476 78.692 106.212 80.168 105.729V87.175H63.834V99.842Z" fill="#DDAC8C"/>
<path d="M106.667 119.509C103.941 114.351 92.585 110.318 83.602 107.853C83.251 113.963 78.2 118.813 72.001 118.813C65.803 118.813 60.752 113.963 60.4 107.853C51.417 110.318 40.06 114.351 37.334 119.509C33.885 131.767 31 147.342 31 147.342H72H113C113.001 147.342 111.052 130.642 106.667 119.509Z" fill="white"/>
<path d="M93.001 69.926C93.001 52.852 83.599 43.143 72.001 43.143C60.403 43.143 51.001 52.852 51.001 69.926C51.001 77.079 53.189 92.917 56.925 96.145C59.49 98.424 67.863 102.328 71.958 102.328H71.959C71.973 102.328 71.987 102.326 72.002 102.326C72.016 102.326 72.03 102.328 72.043 102.328H72.045C76.141 102.328 84.514 98.425 87.078 96.145C90.962 92.043 93.001 76.492 93.001 69.926Z" fill="#F1C9A5"/>
<path d="M72.002 102.326C72.016 102.326 72.03 102.328 72.043 102.328H72.045C76.141 102.328 84.514 98.425 87.078 96.145C90.962 92.042 93.001 76.492 93.001 69.926C93.001 52.852 83.599 43.143 72.001 43.143L72.002 102.326Z" fill="#E4B692"/>
<path d="M89.804 81.766C85.997 81.368 83.427 77.266 84.072 72.61C84.709 67.95 88.314 64.49 92.123 64.886C95.928 65.282 98.494 69.382 97.852 74.042C97.213 78.703 93.611 82.16 89.804 81.766Z" fill="#E4B692"/>
<path d="M46.299 74.043C45.656 69.383 48.223 65.283 52.026 64.887C55.836 64.49 59.442 67.95 60.081 72.611C60.724 77.267 58.151 81.369 54.347 81.767C50.539 82.16 46.937 78.703 46.299 74.043Z" fill="#F1C9A5"/>
<path d="M37.335 119.509C33.886 131.767 31.001 147.342 31.001 147.342H60.778C55.724 125.037 55.529 109.319 55.529 109.289C47.709 111.765 39.584 115.253 37.335 119.509Z" fill="#FB6020"/>
<path d="M106.667 119.509C111.337 131.042 113.001 147.342 113.001 147.342H83.223C88.277 125.037 88.472 109.319 88.472 109.289C96.293 111.765 104.418 115.253 106.667 119.509Z" fill="#FB6020"/>
<path d="M52.286 81.294C52.286 81.294 55.353 91.625 58.674 93.379C60.207 93.379 61.357 93.379 61.357 93.379L64.677 88.674L71.958 86.645V102.329H62.505L53.053 93.841L52.286 81.294Z" fill="#915F2C"/>
<path d="M91.673 81.294C91.673 81.294 88.606 91.625 85.285 93.379C83.752 93.379 82.602 93.379 82.602 93.379L79.282 88.674L72.001 86.645V102.329H81.454L90.906 93.841L91.673 81.294Z" fill="#915F2C"/>
<path d="M75.369 91.81C75.369 91.81 74.869 89.584 71.952 89.584C69.285 89.584 68.535 91.81 68.535 91.81H75.369Z" fill="white"/>
<path d="M51.034 64.935C51.034 64.935 53.817 65.514 55.615 67.604C55.298 63.947 54.595 51.799 59.035 48.751C63.475 45.704 65.552 48.882 72.001 48.882C72.001 44.093 72.001 40 72.001 40C72.001 40 64.25 40 61.519 40C58.787 40 50.118 41.306 50.118 49.491C50.117 57.677 51.034 64.935 51.034 64.935Z" fill="#915F2C"/>
<path d="M92.967 64.935C92.967 64.935 90.184 65.514 88.386 67.604C88.703 63.947 89.406 51.799 84.966 48.751C80.527 45.704 78.449 48.882 72 48.882C72 44.093 72 40 72 40C72 40 79.751 40 82.482 40C85.214 40 93.883 41.306 93.883 49.491C93.884 57.677 92.967 64.935 92.967 64.935Z" fill="#915F2C"/>
</svg>
