<svg width="145" height="145" viewBox="0 0 145 145" fill="none" xmlns="http://www.w3.org/2000/svg">
<path d="M72.387 144.772C112.365 144.772 144.773 112.364 144.773 72.386C144.773 32.4083 112.365 0 72.387 0C32.4093 0 0.000976562 32.4083 0.000976562 72.386C0.000976562 112.364 32.4093 144.772 72.387 144.772Z" fill="#13AEC0"/>
<path d="M107.053 116.94C102.387 108.107 72.387 102.564 72.387 102.564C72.387 102.564 42.387 108.107 37.721 116.94C34.272 129.198 31.387 144.773 31.387 144.773H72.387H113.387C113.387 144.773 111.438 128.073 107.053 116.94Z" fill="#F1C9A5"/>
<path d="M72.387 102.564C72.387 102.564 102.387 108.107 107.053 116.94C111.439 128.073 113.387 144.773 113.387 144.773H72.387V102.564Z" fill="#E4B692"/>
<path d="M80.554 84.607H64.22V111.943H80.554V84.607Z" fill="#F1C9A5"/>
<path d="M80.554 84.607H72.387V111.943H80.554V84.607Z" fill="#E4B692"/>
<path opacity="0.1" d="M64.22 97.273C65.689 101.49 71.617 103.907 75.971 103.907C77.546 103.907 79.078 103.643 80.554 103.16V84.606H64.22V97.273Z" fill="#DDAC8C"/>
<path d="M93.387 67.357C93.387 50.283 83.985 40.574 72.387 40.574C60.789 40.574 51.387 50.283 51.387 67.357C51.387 90.323 60.789 98.274 72.387 98.274C83.984 98.274 93.387 89.366 93.387 67.357Z" fill="#F1C9A5"/>
<path d="M90.19 79.197C86.383 78.798 83.813 74.697 84.457 70.041C85.094 65.381 88.699 61.921 92.508 62.317C96.313 62.713 98.879 66.813 98.237 71.473C97.599 76.134 93.997 79.591 90.19 79.197Z" fill="#E4B692"/>
<path d="M46.685 71.474C46.042 66.814 48.609 62.714 52.412 62.318C56.223 61.921 59.828 65.381 60.467 70.042C61.109 74.698 58.537 78.8 54.733 79.198C50.925 79.591 47.323 76.134 46.685 71.474Z" fill="#F1C9A5"/>
<path d="M93.387 67.357C93.387 50.283 83.985 40.574 72.387 40.574V98.274C83.984 98.274 93.387 89.366 93.387 67.357Z" fill="#E4B692"/>
<path d="M52.1879 73.014C52.1879 73.014 55.0759 67.463 56.3079 56.794C65.0209 65.073 75.2859 66.398 88.8539 56.794C89.1879 64.573 91.4629 69.425 94.1299 73.014C95.7709 59.573 99.3959 52.948 98.1789 45.884C89.1359 47.38 85.9519 39.948 72.3859 39.948C58.8179 39.948 55.7989 47.097 47.3679 46.458C47.3689 54.851 51.3869 59.323 52.1879 73.014Z" fill="#265A68"/>
<path d="M107.053 116.94C104.063 111.28 90.678 106.974 81.443 104.609C81.084 109.3 77.171 112.998 72.387 112.998C67.604 112.998 63.691 109.301 63.331 104.609C54.096 106.974 40.711 111.28 37.721 116.94C34.272 129.198 31.387 144.773 31.387 144.773H72.387H113.387C113.387 144.773 111.438 128.073 107.053 116.94Z" fill="#2D5972"/>
</svg>
