<svg width="145" height="145" viewBox="0 0 145 145" fill="none" xmlns="http://www.w3.org/2000/svg">
<path d="M72.386 144.772C112.364 144.772 144.772 112.364 144.772 72.386C144.772 32.4083 112.364 0 72.386 0C32.4083 0 0 32.4083 0 72.386C0 112.364 32.4083 144.772 72.386 144.772Z" fill="#FDC20E"/>
<path d="M107.052 116.94C102.386 108.107 72.386 102.564 72.386 102.564C72.386 102.564 42.386 108.107 37.72 116.94C34.271 129.198 31.386 144.773 31.386 144.773H72.386H113.386C113.386 144.773 111.437 128.073 107.052 116.94Z" fill="#F1C9A5"/>
<path d="M72.386 102.564C72.386 102.564 102.386 108.107 107.052 116.94C111.438 128.073 113.386 144.773 113.386 144.773H72.386V102.564Z" fill="#E4B692"/>
<path d="M80.553 84.606H64.219V111.942H80.553V84.606Z" fill="#F1C9A5"/>
<path d="M80.553 84.606H72.386V111.942H80.553V84.606Z" fill="#E4B692"/>
<path opacity="0.1" d="M64.219 97.273C65.688 101.49 71.616 103.907 75.97 103.907C77.545 103.907 79.077 103.643 80.553 103.16V84.606H64.219V97.273Z" fill="#DDAC8C"/>
<path d="M93.386 67.357C93.386 50.283 83.984 40.574 72.386 40.574C60.788 40.574 51.386 50.283 51.386 67.357C51.386 90.323 60.788 98.274 72.386 98.274C83.983 98.274 93.386 89.366 93.386 67.357Z" fill="#F1C9A5"/>
<path d="M90.189 79.197C86.382 78.798 83.812 74.697 84.457 70.041C85.094 65.381 88.699 61.921 92.508 62.317C96.313 62.713 98.879 66.813 98.237 71.473C97.598 76.134 93.996 79.591 90.189 79.197Z" fill="#E4B692"/>
<path d="M46.684 71.474C46.041 66.814 48.608 62.714 52.411 62.318C56.222 61.921 59.827 65.381 60.466 70.042C61.108 74.698 58.536 78.8 54.732 79.198C50.924 79.591 47.322 76.134 46.684 71.474Z" fill="#F1C9A5"/>
<path d="M93.386 67.357C93.386 50.283 83.984 40.574 72.386 40.574V98.274C83.983 98.274 93.386 89.366 93.386 67.357Z" fill="#E4B692"/>
<path d="M107.052 116.94C104.326 111.782 92.97 107.749 83.987 105.284L72.386 118.544L60.785 105.284C51.802 107.749 40.445 111.782 37.72 116.94C34.271 129.198 31.386 144.773 31.386 144.773H72.386H113.386C113.386 144.773 111.437 128.073 107.052 116.94Z" fill="#3595BB"/>
<path d="M54.765 75.53C54.765 75.53 69.6 65.406 71.346 59.822C71.171 64.883 71.346 69.421 71.346 69.421C71.346 69.421 85.833 55.11 84.436 43.416C68.03 34.688 55.289 44.812 52.321 49.524C49.353 54.236 48.655 67.327 54.765 75.53Z" fill="#262421"/>
<path d="M82.341 48.127C82.341 48.127 89.149 56.332 90.545 72.738C95.432 65.581 100.668 44.811 84.436 43.416C83.039 46.033 82.341 48.127 82.341 48.127Z" fill="#262421"/>
<path d="M87.384 121.332L78.307 112.895L72.371 118.543L82.236 104.459C82.236 104.459 85.453 104.815 86.597 108.319C86.955 113.826 87.384 121.332 87.384 121.332Z" fill="white"/>
<path d="M69.178 144.773H72.386V118.544L69.178 115.505V144.773Z" fill="#27AAE1"/>
<path d="M57.358 121.332L66.435 112.895L72.371 118.543L62.506 104.459C62.506 104.459 59.289 104.815 58.145 108.319C57.787 113.826 57.358 121.332 57.358 121.332Z" fill="white"/>
</svg>
