<svg width="145" height="145" viewBox="0 0 145 145" fill="none" xmlns="http://www.w3.org/2000/svg">
<path d="M72.387 144.772C112.365 144.772 144.773 112.364 144.773 72.386C144.773 32.4083 112.365 0 72.387 0C32.4093 0 0.000976562 32.4083 0.000976562 72.386C0.000976562 112.364 32.4093 144.772 72.387 144.772Z" fill="#FC611F"/>
<path d="M59.1409 98.774H84.3599C84.3599 98.774 97.3069 86 96.8069 69.424C96.3069 52.848 80.4729 42.682 66.3069 42.682C52.1409 42.683 41.6409 77.533 59.1409 98.774Z" fill="#A25A34"/>
<path d="M107.053 116.94C102.387 108.107 72.387 102.564 72.387 102.564C72.387 102.564 42.387 108.107 37.721 116.94C34.272 129.198 31.387 144.773 31.387 144.773H72.387H113.387C113.387 144.773 111.438 128.073 107.053 116.94Z" fill="#F1C9A5"/>
<path d="M72.387 102.564C72.387 102.564 102.387 108.107 107.053 116.94C111.439 128.073 113.387 144.773 113.387 144.773H72.387V102.564Z" fill="#E4B692"/>
<path d="M80.554 84.606H64.22V111.942H80.554V84.606Z" fill="#F1C9A5"/>
<path d="M80.554 84.606H72.387V111.942H80.554V84.606Z" fill="#E4B692"/>
<path opacity="0.1" d="M64.22 97.273C65.689 101.49 71.617 103.907 75.971 103.907C77.546 103.907 79.078 103.643 80.554 103.16V84.606H64.22V97.273Z" fill="#DDAC8C"/>
<path d="M93.387 67.357C93.387 50.283 83.985 40.574 72.387 40.574C60.789 40.574 51.387 50.283 51.387 67.357C51.387 84.431 60.789 98.274 72.387 98.274C83.984 98.274 93.387 84.432 93.387 67.357Z" fill="#F1C9A5"/>
<path d="M90.19 79.195C86.383 78.771 83.813 74.412 84.458 69.463C85.095 64.51 88.7 60.833 92.509 61.254C96.314 61.676 98.88 66.033 98.238 70.986C97.599 75.939 93.997 79.613 90.19 79.195Z" fill="#E4B692"/>
<path d="M46.685 70.986C46.042 66.033 48.609 61.676 52.412 61.254C56.222 60.833 59.828 64.51 60.467 69.463C61.11 74.412 58.537 78.772 54.733 79.195C50.925 79.613 47.323 75.939 46.685 70.986Z" fill="#F1C9A5"/>
<path d="M93.387 67.357C93.387 50.283 83.985 40.574 72.387 40.574V98.274C83.984 98.274 93.387 84.432 93.387 67.357Z" fill="#E4B692"/>
<path d="M107.053 116.94C106.775 116.413 106.401 115.897 105.952 115.393C100.861 122.095 87.757 126.867 72.388 126.867H72.387C72.386 126.867 72.386 126.867 72.386 126.867C57.017 126.867 43.912 122.096 38.821 115.394C38.374 115.897 38 116.413 37.721 116.94C34.272 129.198 31.387 144.773 31.387 144.773H72.387H113.387C113.387 144.773 111.438 128.073 107.053 116.94Z" fill="#01561E"/>
<path d="M63.6109 49.212C67.0969 55.503 75.8339 59.087 82.1369 63.813C93.1729 72.087 88.1849 90.381 84.3589 98.775C98.2269 90.714 108.395 77.19 103.293 55.275C98.1909 33.359 80.7759 24.034 62.7609 31.805C47.9359 27.918 32.7199 50.431 34.4739 70.793C36.2269 91.153 59.1409 98.774 59.1409 98.774C59.1409 98.774 45.4739 68.441 63.6109 49.212Z" fill="#D1874A"/>
</svg>
