<svg width="145" height="145" viewBox="0 0 145 145" fill="none" xmlns="http://www.w3.org/2000/svg">
<path d="M72.387 144.772C112.365 144.772 144.773 112.364 144.773 72.386C144.773 32.4083 112.365 0 72.387 0C32.4093 0 0.000976562 32.4083 0.000976562 72.386C0.000976562 112.364 32.4093 144.772 72.387 144.772Z" fill="#12B5BA"/>
<path d="M106.971 116.94C102.305 108.107 72.305 102.564 72.305 102.564C72.305 102.564 42.305 108.107 37.639 116.94C34.19 129.198 31.305 144.773 31.305 144.773H72.305H113.305C113.305 144.773 111.357 128.073 106.971 116.94Z" fill="#F1C9A5"/>
<path d="M72.305 102.564C72.305 102.564 102.305 108.107 106.971 116.94C111.357 128.073 113.305 144.773 113.305 144.773H72.305V102.564Z" fill="#E4B692"/>
<path d="M80.472 84.606H64.138V111.942H80.472V84.606Z" fill="#F1C9A5"/>
<path d="M80.472 84.606H72.305V111.942H80.472V84.606Z" fill="#E4B692"/>
<path opacity="0.1" d="M64.138 97.273C65.607 101.49 71.535 103.907 75.889 103.907C77.464 103.907 78.996 103.643 80.472 103.16V84.606H64.138V97.273Z" fill="#DDAC8C"/>
<path d="M93.305 67.357C93.305 50.283 83.903 40.574 72.305 40.574C60.707 40.574 51.305 50.283 51.305 67.357C51.305 84.431 60.707 98.274 72.305 98.274C83.903 98.274 93.305 84.432 93.305 67.357Z" fill="#F1C9A5"/>
<path d="M90.109 79.195C86.302 78.771 83.732 74.412 84.377 69.463C85.014 64.51 88.619 60.833 92.428 61.254C96.233 61.676 98.799 66.033 98.157 70.986C97.517 75.939 93.916 79.613 90.109 79.195Z" fill="#E4B692"/>
<path d="M46.603 70.986C45.96 66.033 48.527 61.675 52.329 61.254C56.14 60.833 59.745 64.51 60.384 69.463C61.027 74.412 58.454 78.772 54.65 79.195C50.843 79.613 47.242 75.939 46.603 70.986Z" fill="#F1C9A5"/>
<path d="M93.305 67.357C93.305 50.283 83.903 40.574 72.305 40.574V98.274C83.903 98.274 93.305 84.432 93.305 67.357Z" fill="#E4B692"/>
<path d="M62.371 90.815C62.371 90.815 53.314 83.434 55.327 73.708C57.339 63.981 62.371 62.305 62.371 57.942C70.756 68.006 78.138 75.047 91.554 71.359C95.579 73.708 90.548 85.786 84.509 92.158C101.617 82.765 121.407 48.216 80.148 34.797C38.888 21.379 27.15 88.803 62.371 90.815Z" fill="#0F303F"/>
<path d="M72.304 51.159C83.144 51.159 92.149 58.993 93.982 69.307C94.206 68.047 94.329 66.753 94.329 65.43C94.329 53.267 84.469 43.406 72.304 43.406C60.141 43.406 50.281 53.267 50.281 65.43C50.281 66.753 50.404 68.047 50.629 69.307C52.46 58.993 61.464 51.159 72.304 51.159Z" fill="#F3641E"/>
<path d="M56.287 106.577C59.225 108.151 66.094 111.432 72.304 111.432C80.472 111.432 91.149 107.432 91.149 107.432L89.68 107.009C86.339 105.92 83.019 105.015 80.183 104.311C72.065 109.176 64.147 104.387 64.139 104.382C61.756 104.979 59.05 105.715 56.287 106.577Z" fill="#FA582A"/>
<path d="M106.971 116.94C105.393 113.953 100.915 111.344 95.684 109.197C92.796 119.393 83.426 126.867 72.305 126.867C61.184 126.867 51.814 119.393 48.926 109.197C43.695 111.345 39.217 113.953 37.639 116.94C34.19 129.198 31.305 144.773 31.305 144.773H72.305H113.305C113.305 144.773 111.357 128.073 106.971 116.94Z" fill="#1594A3"/>
<path d="M119.941 101.12C115.441 99.516 108.274 103.016 103.566 102.564C98.421 102.07 95.636 105.566 92.472 104.932C86.389 103.713 85.829 105.917 85.829 105.917C85.829 105.917 84.358 102.932 90.442 103.906C96.526 104.881 101.176 101.973 102.566 100.098C104.667 97.264 111.691 97.932 111.691 97.932L108.025 93.681C105.442 93.181 101.608 93.514 99.525 97.098C97.442 100.682 95.525 101.098 89.68 100.431C83.835 99.764 80.183 104.31 80.183 104.31L91.233 107.526C91.233 107.526 93.513 108.148 95.847 108.088C98.181 108.027 100.621 105.624 105.503 105.994C110.732 106.39 115.482 103.848 121.635 106.148L119.941 101.12Z" fill="#FA582A"/>
</svg>
