<svg width="145" height="145" viewBox="0 0 145 145" fill="none" xmlns="http://www.w3.org/2000/svg">
<path d="M72.387 144.772C112.365 144.772 144.773 112.364 144.773 72.386C144.773 32.4083 112.365 0 72.387 0C32.4093 0 0.000976562 32.4083 0.000976562 72.386C0.000976562 112.364 32.4093 144.772 72.387 144.772Z" fill="#8DC5D6"/>
<path d="M45.234 75.056C45.234 86.864 38.755 87.169 39.216 94.988C39.729 103.647 46.497 103.667 46.497 109.62C46.497 115.571 40.273 122.244 45.787 128.653C70.031 128.653 72.397 128.653 72.397 128.653V56.445L45.234 75.056Z" fill="#2E576D"/>
<path d="M99.5379 74.665C99.5379 86.473 106.018 86.778 105.556 94.597C105.044 103.256 98.2759 103.276 98.2759 109.229C98.2759 115.18 104.499 121.853 98.9859 128.262C74.7409 128.262 72.3749 128.262 72.3749 128.262V56.055L99.5379 74.665Z" fill="#2E576D"/>
<path d="M72.387 92.549C88.7539 92.549 102.022 79.1946 102.022 62.721C102.022 46.2475 88.7539 32.893 72.387 32.893C56.02 32.893 42.752 46.2475 42.752 62.721C42.752 79.1946 56.02 92.549 72.387 92.549Z" fill="#2E576D"/>
<path d="M107.053 116.94C102.387 108.107 72.387 102.564 72.387 102.564C72.387 102.564 42.387 108.107 37.721 116.94C34.272 129.198 31.387 144.773 31.387 144.773H72.387H113.387C113.387 144.773 111.438 128.073 107.053 116.94Z" fill="#F1C9A5"/>
<path d="M72.387 102.564C72.387 102.564 102.387 108.107 107.053 116.94C111.439 128.073 113.387 144.773 113.387 144.773H72.387V102.564Z" fill="#E4B692"/>
<path d="M80.554 84.606H64.22V111.942H80.554V84.606Z" fill="#F1C9A5"/>
<path d="M80.554 84.606H72.387V111.942H80.554V84.606Z" fill="#E4B692"/>
<path opacity="0.1" d="M64.22 97.273C65.689 101.49 71.617 103.907 75.971 103.907C77.546 103.907 79.079 103.643 80.554 103.16V84.606H64.22V97.273Z" fill="#DDAC8C"/>
<path d="M93.387 67.357C93.387 50.283 83.985 40.574 72.387 40.574C60.789 40.574 51.387 50.283 51.387 67.357C51.387 84.431 60.789 98.274 72.387 98.274C83.984 98.274 93.387 84.432 93.387 67.357Z" fill="#F1C9A5"/>
<path d="M90.19 79.195C86.383 78.771 83.813 74.412 84.458 69.463C85.095 64.51 88.7 60.833 92.509 61.254C96.314 61.676 98.88 66.033 98.238 70.986C97.599 75.939 93.997 79.613 90.19 79.195Z" fill="#E4B692"/>
<path d="M46.685 70.986C46.042 66.033 48.609 61.675 52.412 61.254C56.222 60.833 59.828 64.51 60.467 69.463C61.109 74.412 58.537 78.772 54.733 79.195C50.925 79.613 47.323 75.939 46.685 70.986Z" fill="#F1C9A5"/>
<path d="M93.387 67.357C93.387 50.283 83.985 40.574 72.387 40.574V98.274C83.984 98.274 93.387 84.432 93.387 67.357Z" fill="#E4B692"/>
<path d="M95.12 65.43C95.12 65.379 95.123 65.33 95.123 65.28C95.123 52.035 86.156 38.058 73.605 38.058C61.054 38.058 49.674 52.034 49.674 65.279C49.674 65.33 49.6769 65.379 49.6769 65.429H95.12V65.43Z" fill="#2E576D"/>
<path d="M113.387 144.773C113.387 144.773 111.439 128.073 107.053 116.94C104.494 112.095 94.319 108.244 85.647 105.751L72.356 116.183L58.531 105.923C49.996 108.42 40.221 112.207 37.721 116.941C34.272 129.199 31.387 144.774 31.387 144.774H72.387H113.387V144.773Z" fill="#FA582A"/>
</svg>
