<svg width="145" height="145" viewBox="0 0 145 145" fill="none" xmlns="http://www.w3.org/2000/svg">
<path d="M72.387 144.772C112.365 144.772 144.773 112.364 144.773 72.386C144.773 32.4083 112.365 0 72.387 0C32.4093 0 0.000976562 32.4083 0.000976562 72.386C0.000976562 112.364 32.4093 144.772 72.387 144.772Z" fill="#2B5971"/>
<path d="M102.172 63.438C102.172 46.728 88.627 29.1 71.917 29.1C55.207 29.1 41.662 46.728 41.662 63.438C41.662 80.148 55.207 93.693 71.917 93.693C88.627 93.692 102.172 80.147 102.172 63.438Z" fill="#583A2F"/>
<path d="M54.975 127.85H93.387C93.387 127.85 97.307 86 96.807 69.425C96.307 52.85 80.473 42.683 66.307 42.683C52.141 42.683 37.475 106.608 54.975 127.85Z" fill="#583A2F"/>
<path d="M107.053 116.94C103.966 111.096 89.795 106.694 80.554 104.383V84.606H64.22V104.383C54.979 106.694 40.808 111.096 37.721 116.94C34.272 129.198 31.387 144.773 31.387 144.773H72.387H113.387C113.387 144.773 111.438 128.073 107.053 116.94Z" fill="#F1C9A5"/>
<path d="M107.053 116.94C103.966 111.096 89.795 106.694 80.554 104.383V84.606H72.387V102.564V111.942V144.773H113.387C113.387 144.773 111.438 128.073 107.053 116.94Z" fill="#E4B692"/>
<path opacity="0.1" d="M64.22 97.273C65.689 101.49 71.617 103.907 75.971 103.907C77.546 103.907 79.078 103.643 80.554 103.16V84.606H64.22V97.273Z" fill="#DDAC8C"/>
<path d="M93.387 67.357C93.387 50.283 83.985 40.574 72.387 40.574C60.789 40.574 51.387 50.283 51.387 67.357C51.387 84.431 60.789 98.274 72.387 98.274C83.984 98.274 93.387 84.432 93.387 67.357Z" fill="#F1C9A5"/>
<path d="M90.19 79.199C86.383 78.833 83.813 75.059 84.457 70.776C85.094 66.489 88.699 63.306 92.508 63.671C96.313 64.036 98.879 67.808 98.237 72.095C97.599 76.382 93.997 79.562 90.19 79.199Z" fill="#E4B692"/>
<path d="M45.8219 72.0949C45.1789 67.8079 47.7459 64.0359 51.5489 63.6709C55.3599 63.3069 58.9649 66.4889 59.6039 70.7759C60.2469 75.0589 57.6739 78.8329 53.8699 79.1989C50.0619 79.5619 46.4609 76.3819 45.8219 72.0949Z" fill="#F1C9A5"/>
<path d="M93.387 67.357C93.387 50.283 83.985 40.574 72.387 40.574V98.274C83.984 98.274 93.387 84.432 93.387 67.357Z" fill="#E4B692"/>
<path d="M80.554 104.384V99.923C77.914 100.15 75.184 100.27 72.387 100.27C69.59 100.27 66.86 100.15 64.22 99.923V104.384C54.979 106.695 40.808 111.097 37.721 116.941C34.272 129.199 31.387 144.774 31.387 144.774H72.387H113.387C113.387 144.774 111.439 128.074 107.053 116.941C103.966 111.097 89.795 106.694 80.554 104.384Z" fill="#C51C39"/>
<path d="M62.374 104.678C62.374 104.687 62.374 104.695 62.374 104.703" stroke="white" stroke-width="1.4308" stroke-linecap="round" stroke-linejoin="round"/>
<path d="M62.561 106.61C63.461 111.215 67.518 114.689 72.388 114.689C77.591 114.689 81.867 110.721 82.354 105.646" stroke="white" stroke-width="1.4308" stroke-linecap="round" stroke-linejoin="round" stroke-dasharray="0.05 1.92"/>
<path d="M82.4 104.703C82.4 104.694 82.4 104.686 82.4 104.678" stroke="white" stroke-width="1.4308" stroke-linecap="round" stroke-linejoin="round"/>
<path d="M41.662 63.438C41.662 63.438 37.974 124.615 35.224 144.774H56.224L51.956 88.005" fill="#583A2F"/>
<path d="M102.171 63.438C102.171 63.438 105.859 124.615 108.609 144.774H87.609L90.39 91.266" fill="#583A2F"/>
<path d="M73.595 37.1489C61.044 37.1489 49.663 51.1259 49.663 64.3709C49.663 64.4219 49.666 64.4709 49.666 64.5209H61.519L62.641 55.6819V64.5209H74.641V55.6819L76.745 64.5209H84.359V57.1819L86.185 64.5209H95.109C95.109 64.4699 95.112 64.4209 95.112 64.3709C95.112 51.1259 86.145 37.1489 73.595 37.1489Z" fill="#583A2F"/>
</svg>
